<svg xmlns="http://www.w3.org/2000/svg" xmlns:xlink="http://www.w3.org/1999/xlink" width="1640" zoomAndPan="magnify" viewBox="0 0 1230 693.000001" height="924" preserveAspectRatio="xMidYMid meet" version="1.0"><defs><g/></defs><g fill="#000000" fill-opacity="1"><g transform="translate(174.534014, 396.652244)"><g><path d="M 98.46875 -17.953125 C 98.59375 -18.691406 98.625 -19.457031 98.5625 -20.25 C 98.5 -21.425781 97.898438 -21.96875 96.765625 -21.875 C 95.742188 -21.75 94.757812 -21.625 93.8125 -21.5 C 76.738281 -18.851562 59.785156 -15.53125 42.953125 -11.53125 C 37.660156 -10.300781 32.390625 -8.945312 27.140625 -7.46875 C 21.898438 -6 16.742188 -4.28125 11.671875 -2.3125 C 5.460938 0.0625 -0.226562 3.382812 -5.40625 7.65625 C -8.78125 10.363281 -11.578125 13.578125 -13.796875 17.296875 C -18.128906 24.867188 -18.269531 32.453125 -14.21875 40.046875 C -12.125 43.773438 -9.445312 47.050781 -6.1875 49.875 C 1.195312 56.582031 9.6875 61.382812 19.28125 64.28125 C 24.082031 65.90625 28.960938 66.6875 33.921875 66.625 C 39.941406 66.6875 45.691406 65.644531 51.171875 63.5 C 56.304688 61.46875 60.9375 58.804688 65.0625 55.515625 C 69.1875 52.222656 72.910156 48.421875 76.234375 44.109375 C 78.753906 40.785156 80.957031 37.332031 82.84375 33.75 C 84.738281 30.164062 86.457031 26.4375 88 22.5625 C 90.644531 16.070312 92.78125 9.425781 94.40625 2.625 C 96.039062 -4.164062 97.394531 -11.023438 98.46875 -17.953125 Z M 101.09375 -155.6875 C 101.3125 -155.6875 101.5625 -155.71875 101.84375 -155.78125 C 103.53125 -155.9375 105.21875 -156.210938 106.90625 -156.609375 C 108.257812 -156.878906 109.644531 -157.109375 111.0625 -157.296875 C 114.632812 -157.703125 118.1875 -158.179688 121.71875 -158.734375 C 123.007812 -158.941406 124.332031 -159.140625 125.6875 -159.328125 C 129.414062 -159.878906 133.140625 -160.460938 136.859375 -161.078125 C 137.992188 -161.203125 139.101562 -161.375 140.1875 -161.59375 L 140.59375 -161.59375 C 141 -161.71875 141.398438 -161.78125 141.796875 -161.78125 C 142.015625 -161.78125 142.257812 -161.75 142.53125 -161.6875 C 142.8125 -161.75 143.117188 -161.78125 143.453125 -161.78125 C 143.859375 -161.78125 144.257812 -161.640625 144.65625 -161.359375 C 144.78125 -161.296875 144.910156 -161.179688 145.046875 -161.015625 C 145.179688 -160.847656 145.28125 -160.65625 145.34375 -160.4375 C 145.34375 -160.3125 145.3125 -160.148438 145.25 -159.953125 C 145.195312 -159.753906 145.140625 -159.578125 145.078125 -159.421875 C 144.578125 -159.023438 144.039062 -158.738281 143.46875 -158.5625 C 142.90625 -158.394531 142.316406 -158.28125 141.703125 -158.21875 C 141.578125 -158.15625 141.410156 -158.125 141.203125 -158.125 L 132.65625 -156.703125 C 127.1875 -155.804688 121.710938 -154.898438 116.234375 -153.984375 L 112.359375 -153.328125 C 108.972656 -152.929688 105.585938 -152.253906 102.203125 -151.296875 C 102.753906 -149.148438 103.304688 -147.03125 103.859375 -144.9375 C 104.660156 -142.007812 105.335938 -139.101562 105.890625 -136.21875 C 107.304688 -128.09375 108.273438 -119.925781 108.796875 -111.71875 C 110.828125 -84.582031 110.660156 -57.507812 108.296875 -30.5 L 108.296875 -30.3125 C 108.234375 -29.976562 108.203125 -29.640625 108.203125 -29.296875 C 108.140625 -28.066406 108.507812 -27.359375 109.3125 -27.171875 C 110.320312 -27.234375 111.304688 -27.328125 112.265625 -27.453125 C 113.835938 -27.609375 115.359375 -27.75 116.828125 -27.875 C 119.535156 -28.019531 122.273438 -28.125 125.046875 -28.1875 L 126.703125 -28.1875 C 127.109375 -28.1875 127.460938 -28.046875 127.765625 -27.765625 C 128.078125 -27.492188 128.234375 -27.128906 128.234375 -26.671875 C 128.234375 -26.273438 128.09375 -25.9375 127.8125 -25.65625 C 127.539062 -25.375 127.203125 -25.175781 126.796875 -25.0625 C 125.847656 -24.78125 124.894531 -24.640625 123.9375 -24.640625 C 119.414062 -24.484375 114.925781 -24.035156 110.46875 -23.296875 C 109.238281 -23.179688 108.421875 -22.9375 108.015625 -22.5625 C 107.617188 -22.195312 107.34375 -21.367188 107.1875 -20.078125 C 106.789062 -17.828125 106.421875 -15.550781 106.078125 -13.25 C 105.523438 -9.957031 104.957031 -6.617188 104.375 -3.234375 C 102.0625 8.828125 98.289062 20.378906 93.0625 31.421875 C 89.5 38.929688 85.054688 45.59375 79.734375 51.40625 C 74.410156 57.21875 68.023438 62.0625 60.578125 65.9375 C 51.535156 70.582031 42.335938 72.84375 32.984375 72.71875 C 25.816406 72.84375 18.546875 71.519531 11.171875 68.75 C 2.242188 65.425781 -5.707031 60.488281 -12.6875 53.9375 C -15.945312 50.957031 -18.625 47.578125 -20.71875 43.796875 C -24.84375 36.003906 -25.070312 28.082031 -21.40625 20.03125 C -19.875 16.644531 -17.898438 13.613281 -15.484375 10.9375 C -13.066406 8.257812 -10.378906 5.84375 -7.421875 3.6875 C -3.828125 0.976562 -0.0703125 -1.332031 3.84375 -3.25 C 7.769531 -5.175781 11.84375 -6.890625 16.0625 -8.390625 C 22.207031 -10.546875 28.410156 -12.421875 34.671875 -14.015625 C 40.929688 -15.617188 47.25 -17.097656 53.625 -18.453125 C 67.613281 -21.503906 81.71875 -23.90625 95.9375 -25.65625 C 97.75 -25.78125 98.90625 -26.109375 99.40625 -26.640625 C 99.914062 -27.179688 100.25 -28.4375 100.40625 -30.40625 C 102.15625 -52.125 102.632812 -73.921875 101.84375 -95.796875 C 101.625 -102.617188 101.207031 -109.453125 100.59375 -116.296875 C 99.976562 -123.140625 99.097656 -129.945312 97.953125 -136.71875 C 97.285156 -140.4375 96.441406 -144.082031 95.421875 -147.65625 C 95.140625 -148.945312 94.691406 -149.765625 94.078125 -150.109375 L 93.484375 -150.28125 C 93.296875 -150.28125 93.066406 -150.25 92.796875 -150.1875 L 80.609375 -148.25 C 73.960938 -147.175781 67.332031 -146.160156 60.71875 -145.203125 C 41.15625 -142.253906 21.484375 -139.796875 1.703125 -137.828125 C -0.503906 -137.492188 -2.703125 -137.351562 -4.890625 -137.40625 C -6.578125 -137.40625 -8.222656 -137.46875 -9.828125 -137.59375 C -10.109375 -137.59375 -10.367188 -137.675781 -10.609375 -137.84375 C -10.859375 -138.019531 -11.046875 -138.273438 -11.171875 -138.609375 C -11.285156 -139.503906 -11.007812 -140.179688 -10.34375 -140.640625 C -8.925781 -141.472656 -7.398438 -141.890625 -5.765625 -141.890625 C 4.722656 -142.898438 15.1875 -144.082031 25.625 -145.4375 C 36.070312 -146.789062 46.507812 -148.175781 56.9375 -149.59375 C 65.394531 -150.820312 73.851562 -152.003906 82.3125 -153.140625 C 83.332031 -153.203125 84.378906 -153.3125 85.453125 -153.46875 C 87.148438 -153.53125 88.84375 -153.726562 90.53125 -154.0625 C 92.21875 -154.40625 93.847656 -155.054688 95.421875 -156.015625 C 95.640625 -156.066406 95.847656 -156.109375 96.046875 -156.140625 C 96.242188 -156.171875 96.4375 -156.15625 96.625 -156.09375 C 96.78125 -156.09375 96.914062 -156.066406 97.03125 -156.015625 L 97.640625 -156.1875 C 97.847656 -156.1875 98.0625 -156.15625 98.28125 -156.09375 C 99.207031 -155.882812 100.144531 -155.75 101.09375 -155.6875 Z M 101.09375 -155.6875 "/></g></g></g><g fill="#000000" fill-opacity="1"><g transform="translate(296.217466, 396.652244)"><g><path d="M 68.203125 -26.671875 C 68.753906 -27.410156 69.335938 -27.945312 69.953125 -28.28125 C 70.566406 -28.625 70.9375 -28.625 71.0625 -28.28125 C 71.1875 -27.945312 70.847656 -27.132812 70.046875 -25.84375 C 68.234375 -23.132812 65.5625 -20.5625 62.03125 -18.125 C 58.507812 -15.695312 54.617188 -13.625 50.359375 -11.90625 C 46.097656 -10.1875 41.9375 -9.046875 37.875 -8.484375 C 33.820312 -7.929688 30.382812 -8.203125 27.5625 -9.296875 C 24.75 -10.390625 23.003906 -12.519531 22.328125 -15.6875 C 19.960938 -11.84375 17.15625 -8.835938 13.90625 -6.671875 C 10.664062 -4.503906 7.582031 -3.585938 4.65625 -3.921875 C 1.332031 -4.378906 -0.878906 -5.625 -1.984375 -7.65625 C -3.085938 -9.6875 -3.453125 -12.023438 -3.078125 -14.671875 C -2.710938 -17.316406 -1.914062 -19.820312 -0.6875 -22.1875 C 0.226562 -24.007812 1.53125 -25.703125 3.21875 -27.265625 C 4.914062 -28.835938 6.6875 -30.054688 8.53125 -30.921875 C 10.84375 -32.085938 13.160156 -32.613281 15.484375 -32.5 C 17.804688 -32.394531 20.289062 -31.632812 22.9375 -30.21875 C 22.9375 -30.21875 22.96875 -30.28125 23.03125 -30.40625 C 23.03125 -30.6875 23.082031 -31.007812 23.1875 -31.375 C 23.289062 -31.75 23.515625 -32.070312 23.859375 -32.34375 C 24.316406 -32.6875 24.90625 -32.957031 25.625 -33.15625 C 26.351562 -33.351562 27.054688 -33.390625 27.734375 -33.265625 C 28.804688 -33.054688 29.472656 -32.507812 29.734375 -31.625 C 29.992188 -30.75 30.039062 -29.785156 29.875 -28.734375 C 29.707031 -27.691406 29.53125 -26.804688 29.34375 -26.078125 C 29.28125 -25.921875 29.25 -25.78125 29.25 -25.65625 C 28.144531 -21.195312 28.546875 -18.066406 30.453125 -16.265625 C 32.359375 -14.460938 35.117188 -13.628906 38.734375 -13.765625 C 42.347656 -13.910156 46.1875 -14.675781 50.25 -16.0625 C 54.3125 -17.445312 58.003906 -19.097656 61.328125 -21.015625 C 64.648438 -22.941406 66.941406 -24.828125 68.203125 -26.671875 Z M 6 -9.921875 C 7.414062 -8.960938 8.9375 -9.0625 10.5625 -10.21875 C 12.195312 -11.375 13.789062 -13.035156 15.34375 -15.203125 C 16.894531 -17.367188 18.175781 -19.53125 19.1875 -21.6875 C 20.207031 -23.84375 20.78125 -25.472656 20.90625 -26.578125 C 17.675781 -28.328125 14.90625 -28.640625 12.59375 -27.515625 C 10.289062 -26.398438 8.492188 -24.609375 7.203125 -22.140625 C 5.910156 -19.679688 5.160156 -17.242188 4.953125 -14.828125 C 4.753906 -12.421875 5.101562 -10.785156 6 -9.921875 Z M 6 -9.921875 "/></g></g></g><g fill="#000000" fill-opacity="1"><g transform="translate(362.204322, 396.652244)"><g><path d="M 31.703125 -31.65625 C 32.441406 -31.71875 33.09375 -31.691406 33.65625 -31.578125 C 34.226562 -31.472656 34.515625 -31.222656 34.515625 -30.828125 C 34.796875 -26.546875 34.695312 -21.191406 34.21875 -14.765625 C 33.738281 -8.335938 32.722656 -1.390625 31.171875 6.078125 C 29.617188 13.554688 27.414062 21.035156 24.5625 28.515625 C 21.71875 35.992188 18.097656 42.914062 13.703125 49.28125 C 9.304688 55.644531 3.992188 60.90625 -2.234375 65.0625 C -8.460938 69.21875 -15.734375 71.738281 -24.046875 72.625 C -30.347656 73.144531 -35.53125 72.257812 -39.59375 69.96875 C -43.65625 67.675781 -45.851562 64.078125 -46.1875 59.171875 C -46.53125 54.265625 -44.207031 48.160156 -39.21875 40.859375 C -34.238281 33.554688 -25.875 25.117188 -14.125 15.546875 C -7.875 10.691406 -1.742188 6.367188 4.265625 2.578125 C 10.285156 -1.203125 15.398438 -4.351562 19.609375 -6.875 C 20.742188 -7.550781 21.789062 -8.148438 22.75 -8.671875 C 25.664062 -10.304688 27.019531 -12.675781 26.8125 -15.78125 C 26.8125 -16.113281 26.8125 -16.59375 26.8125 -17.21875 C 26.75 -18.101562 26.71875 -19.085938 26.71875 -20.171875 C 24.96875 -17.398438 22.5 -14.875 19.3125 -12.59375 C 16.125 -10.320312 12.851562 -8.703125 9.5 -7.734375 C 6.144531 -6.765625 3.285156 -6.816406 0.921875 -7.890625 C -1.441406 -8.960938 -2.65625 -11.46875 -2.71875 -15.40625 C -2.65625 -17.4375 -2.085938 -19.300781 -1.015625 -21 C 1.566406 -25.519531 5.117188 -29.070312 9.640625 -31.65625 C 11.335938 -32.570312 13.382812 -33.238281 15.78125 -33.65625 C 18.175781 -34.070312 20.492188 -34.039062 22.734375 -33.5625 C 24.984375 -33.09375 26.785156 -32.039062 28.140625 -30.40625 C 28.484375 -30.894531 28.96875 -31.222656 29.59375 -31.390625 C 30.226562 -31.566406 30.820312 -31.65625 31.375 -31.65625 C 31.5 -31.65625 31.609375 -31.65625 31.703125 -31.65625 Z M 20.71875 -20.765625 C 23.550781 -23.628906 25.101562 -25.828125 25.375 -27.359375 C 24.695312 -28.585938 23.648438 -29.332031 22.234375 -29.59375 C 20.828125 -29.863281 19.375 -29.847656 17.875 -29.546875 C 16.382812 -29.253906 15.132812 -28.800781 14.125 -28.1875 C 11.351562 -26.4375 9.304688 -24.304688 7.984375 -21.796875 C 6.660156 -19.296875 6.164062 -17.160156 6.5 -15.390625 C 6.84375 -13.617188 8.164062 -13.007812 10.46875 -13.5625 C 12.78125 -14.113281 16.195312 -16.515625 20.71875 -20.765625 Z M 24.59375 -0.546875 C 24.59375 -0.640625 24.625 -0.71875 24.6875 -0.78125 C 24.75 -1.1875 24.8125 -1.710938 24.875 -2.359375 C 24.9375 -3.003906 24.921875 -3.507812 24.828125 -3.875 C 24.734375 -4.25 24.488281 -4.296875 24.09375 -4.015625 C 23.53125 -3.671875 22.941406 -3.300781 22.328125 -2.90625 C 18.210938 -0.257812 12.800781 3.425781 6.09375 8.15625 C -0.613281 12.894531 -7.410156 18.234375 -14.296875 24.171875 C -15.648438 25.410156 -17.597656 27.226562 -20.140625 29.625 C -22.679688 32.019531 -25.359375 34.753906 -28.171875 37.828125 C -30.984375 40.910156 -33.488281 44.097656 -35.6875 47.390625 C -37.882812 50.679688 -39.335938 53.78125 -40.046875 56.6875 C -40.753906 59.59375 -40.296875 62.09375 -38.671875 64.1875 C -36.515625 66.707031 -33.179688 67.796875 -28.671875 67.453125 C -24.171875 67.117188 -19.113281 65.425781 -13.5 62.375 C -7.882812 59.332031 -2.367188 54.953125 3.046875 49.234375 C 8.460938 43.515625 13.113281 36.492188 17 28.171875 C 20.894531 19.847656 23.425781 10.273438 24.59375 -0.546875 Z M 24.59375 -0.546875 "/></g></g></g><g fill="#000000" fill-opacity="1"><g transform="translate(403.319208, 396.652244)"><g><path d="M 68.203125 -26.671875 C 68.753906 -27.410156 69.335938 -27.945312 69.953125 -28.28125 C 70.566406 -28.625 70.9375 -28.625 71.0625 -28.28125 C 71.1875 -27.945312 70.847656 -27.132812 70.046875 -25.84375 C 68.234375 -23.132812 65.5625 -20.5625 62.03125 -18.125 C 58.507812 -15.695312 54.617188 -13.625 50.359375 -11.90625 C 46.097656 -10.1875 41.9375 -9.046875 37.875 -8.484375 C 33.820312 -7.929688 30.382812 -8.203125 27.5625 -9.296875 C 24.75 -10.390625 23.003906 -12.519531 22.328125 -15.6875 C 19.960938 -11.84375 17.15625 -8.835938 13.90625 -6.671875 C 10.664062 -4.503906 7.582031 -3.585938 4.65625 -3.921875 C 1.332031 -4.378906 -0.878906 -5.625 -1.984375 -7.65625 C -3.085938 -9.6875 -3.453125 -12.023438 -3.078125 -14.671875 C -2.710938 -17.316406 -1.914062 -19.820312 -0.6875 -22.1875 C 0.226562 -24.007812 1.53125 -25.703125 3.21875 -27.265625 C 4.914062 -28.835938 6.6875 -30.054688 8.53125 -30.921875 C 10.84375 -32.085938 13.160156 -32.613281 15.484375 -32.5 C 17.804688 -32.394531 20.289062 -31.632812 22.9375 -30.21875 C 22.9375 -30.21875 22.96875 -30.28125 23.03125 -30.40625 C 23.03125 -30.6875 23.082031 -31.007812 23.1875 -31.375 C 23.289062 -31.75 23.515625 -32.070312 23.859375 -32.34375 C 24.316406 -32.6875 24.90625 -32.957031 25.625 -33.15625 C 26.351562 -33.351562 27.054688 -33.390625 27.734375 -33.265625 C 28.804688 -33.054688 29.472656 -32.507812 29.734375 -31.625 C 29.992188 -30.75 30.039062 -29.785156 29.875 -28.734375 C 29.707031 -27.691406 29.53125 -26.804688 29.34375 -26.078125 C 29.28125 -25.921875 29.25 -25.78125 29.25 -25.65625 C 28.144531 -21.195312 28.546875 -18.066406 30.453125 -16.265625 C 32.359375 -14.460938 35.117188 -13.628906 38.734375 -13.765625 C 42.347656 -13.910156 46.1875 -14.675781 50.25 -16.0625 C 54.3125 -17.445312 58.003906 -19.097656 61.328125 -21.015625 C 64.648438 -22.941406 66.941406 -24.828125 68.203125 -26.671875 Z M 6 -9.921875 C 7.414062 -8.960938 8.9375 -9.0625 10.5625 -10.21875 C 12.195312 -11.375 13.789062 -13.035156 15.34375 -15.203125 C 16.894531 -17.367188 18.175781 -19.53125 19.1875 -21.6875 C 20.207031 -23.84375 20.78125 -25.472656 20.90625 -26.578125 C 17.675781 -28.328125 14.90625 -28.640625 12.59375 -27.515625 C 10.289062 -26.398438 8.492188 -24.609375 7.203125 -22.140625 C 5.910156 -19.679688 5.160156 -17.242188 4.953125 -14.828125 C 4.753906 -12.421875 5.101562 -10.785156 6 -9.921875 Z M 6 -9.921875 "/></g></g></g><g fill="#000000" fill-opacity="1"><g transform="translate(469.306063, 396.652244)"><g><path d="M 68.015625 -27.96875 C 69.367188 -28.582031 70.15625 -28.6875 70.375 -28.28125 C 70.613281 -27.476562 69.882812 -26.039062 68.1875 -23.96875 C 66.5 -21.894531 64.210938 -19.78125 61.328125 -17.625 C 54.335938 -12.769531 48.457031 -9.863281 43.6875 -8.90625 C 38.925781 -7.945312 35.035156 -8.242188 32.015625 -9.796875 C 29.003906 -11.359375 26.757812 -13.492188 25.28125 -16.203125 C 23.53125 -19.242188 22.441406 -22.253906 22.015625 -25.234375 C 21.429688 -28.492188 20.628906 -30.335938 19.609375 -30.765625 C 18.597656 -31.203125 17.515625 -30.742188 16.359375 -29.390625 C 15.203125 -28.035156 14.078125 -26.257812 12.984375 -24.0625 C 11.890625 -21.863281 10.988281 -19.71875 10.28125 -17.625 C 9.582031 -15.53125 9.203125 -13.945312 9.140625 -12.875 C 8.921875 -12.257812 8.71875 -11.675781 8.53125 -11.125 C 8.257812 -10.257812 7.953125 -9.410156 7.609375 -8.578125 C 6.722656 -6.273438 5.171875 -5.429688 2.953125 -6.046875 C 1.722656 -6.265625 1.015625 -7.019531 0.828125 -8.3125 C 0.734375 -9.164062 0.6875 -10.070312 0.6875 -11.03125 C 0.6875 -11.769531 0.65625 -12.550781 0.59375 -13.375 C 0.476562 -18.914062 0.34375 -24.5 0.1875 -30.125 C 0.1875 -30.800781 0.507812 -31.269531 1.15625 -31.53125 C 1.800781 -31.800781 2.546875 -31.921875 3.390625 -31.890625 C 4.234375 -31.859375 4.976562 -31.722656 5.625 -31.484375 C 6.269531 -31.253906 6.625 -30.925781 6.6875 -30.5 C 6.84375 -29.570312 6.921875 -28.769531 6.921875 -28.09375 C 6.921875 -27.144531 6.984375 -26.460938 7.109375 -26.046875 C 7.234375 -25.628906 7.515625 -25.644531 7.953125 -26.09375 C 8.398438 -26.539062 9.164062 -27.472656 10.25 -28.890625 C 11.9375 -31.597656 14.070312 -33.90625 16.65625 -35.8125 C 17.789062 -36.664062 19.132812 -37.285156 20.6875 -37.671875 C 22.25 -38.054688 23.75 -38.113281 25.1875 -37.84375 C 26.726562 -37.4375 27.9375 -36.554688 28.8125 -35.203125 C 29.6875 -33.847656 30.347656 -32.300781 30.796875 -30.5625 C 31.242188 -28.832031 31.578125 -27.226562 31.796875 -25.75 C 31.859375 -25.34375 31.921875 -25.003906 31.984375 -24.734375 C 32.316406 -22.765625 32.765625 -20.972656 33.328125 -19.359375 C 33.898438 -17.742188 34.832031 -16.472656 36.125 -15.546875 C 37.414062 -14.628906 39.3125 -14.273438 41.8125 -14.484375 C 47.21875 -14.890625 51.515625 -16.019531 54.703125 -17.875 C 57.890625 -19.738281 60.570312 -21.71875 62.75 -23.8125 C 63.09375 -24.082031 63.382812 -24.359375 63.625 -24.640625 C 64.125 -24.972656 64.539062 -25.3125 64.875 -25.65625 C 65.675781 -26.519531 66.722656 -27.289062 68.015625 -27.96875 Z M 68.015625 -27.96875 "/></g></g></g><g fill="#000000" fill-opacity="1"><g transform="translate(533.539421, 396.652244)"><g><path d="M 68.015625 -27.96875 C 69.367188 -28.582031 70.15625 -28.6875 70.375 -28.28125 C 70.613281 -27.476562 69.882812 -26.039062 68.1875 -23.96875 C 66.5 -21.894531 64.210938 -19.78125 61.328125 -17.625 C 54.335938 -12.769531 48.457031 -9.863281 43.6875 -8.90625 C 38.925781 -7.945312 35.035156 -8.242188 32.015625 -9.796875 C 29.003906 -11.359375 26.757812 -13.492188 25.28125 -16.203125 C 23.53125 -19.242188 22.441406 -22.253906 22.015625 -25.234375 C 21.429688 -28.492188 20.628906 -30.335938 19.609375 -30.765625 C 18.597656 -31.203125 17.515625 -30.742188 16.359375 -29.390625 C 15.203125 -28.035156 14.078125 -26.257812 12.984375 -24.0625 C 11.890625 -21.863281 10.988281 -19.71875 10.28125 -17.625 C 9.582031 -15.53125 9.203125 -13.945312 9.140625 -12.875 C 8.921875 -12.257812 8.71875 -11.675781 8.53125 -11.125 C 8.257812 -10.257812 7.953125 -9.410156 7.609375 -8.578125 C 6.722656 -6.273438 5.171875 -5.429688 2.953125 -6.046875 C 1.722656 -6.265625 1.015625 -7.019531 0.828125 -8.3125 C 0.734375 -9.164062 0.6875 -10.070312 0.6875 -11.03125 C 0.6875 -11.769531 0.65625 -12.550781 0.59375 -13.375 C 0.476562 -18.914062 0.34375 -24.5 0.1875 -30.125 C 0.1875 -30.800781 0.507812 -31.269531 1.15625 -31.53125 C 1.800781 -31.800781 2.546875 -31.921875 3.390625 -31.890625 C 4.234375 -31.859375 4.976562 -31.722656 5.625 -31.484375 C 6.269531 -31.253906 6.625 -30.925781 6.6875 -30.5 C 6.84375 -29.570312 6.921875 -28.769531 6.921875 -28.09375 C 6.921875 -27.144531 6.984375 -26.460938 7.109375 -26.046875 C 7.234375 -25.628906 7.515625 -25.644531 7.953125 -26.09375 C 8.398438 -26.539062 9.164062 -27.472656 10.25 -28.890625 C 11.9375 -31.597656 14.070312 -33.90625 16.65625 -35.8125 C 17.789062 -36.664062 19.132812 -37.285156 20.6875 -37.671875 C 22.25 -38.054688 23.75 -38.113281 25.1875 -37.84375 C 26.726562 -37.4375 27.9375 -36.554688 28.8125 -35.203125 C 29.6875 -33.847656 30.347656 -32.300781 30.796875 -30.5625 C 31.242188 -28.832031 31.578125 -27.226562 31.796875 -25.75 C 31.859375 -25.34375 31.921875 -25.003906 31.984375 -24.734375 C 32.316406 -22.765625 32.765625 -20.972656 33.328125 -19.359375 C 33.898438 -17.742188 34.832031 -16.472656 36.125 -15.546875 C 37.414062 -14.628906 39.3125 -14.273438 41.8125 -14.484375 C 47.21875 -14.890625 51.515625 -16.019531 54.703125 -17.875 C 57.890625 -19.738281 60.570312 -21.71875 62.75 -23.8125 C 63.09375 -24.082031 63.382812 -24.359375 63.625 -24.640625 C 64.125 -24.972656 64.539062 -25.3125 64.875 -25.65625 C 65.675781 -26.519531 66.722656 -27.289062 68.015625 -27.96875 Z M 68.015625 -27.96875 "/></g></g></g><g fill="#000000" fill-opacity="1"><g transform="translate(597.772779, 396.652244)"><g><path d="M 68.203125 -26.671875 C 68.753906 -27.410156 69.335938 -27.945312 69.953125 -28.28125 C 70.566406 -28.625 70.9375 -28.625 71.0625 -28.28125 C 71.1875 -27.945312 70.847656 -27.132812 70.046875 -25.84375 C 68.234375 -23.132812 65.5625 -20.5625 62.03125 -18.125 C 58.507812 -15.695312 54.617188 -13.625 50.359375 -11.90625 C 46.097656 -10.1875 41.9375 -9.046875 37.875 -8.484375 C 33.820312 -7.929688 30.382812 -8.203125 27.5625 -9.296875 C 24.75 -10.390625 23.003906 -12.519531 22.328125 -15.6875 C 19.960938 -11.84375 17.15625 -8.835938 13.90625 -6.671875 C 10.664062 -4.503906 7.582031 -3.585938 4.65625 -3.921875 C 1.332031 -4.378906 -0.878906 -5.625 -1.984375 -7.65625 C -3.085938 -9.6875 -3.453125 -12.023438 -3.078125 -14.671875 C -2.710938 -17.316406 -1.914062 -19.820312 -0.6875 -22.1875 C 0.226562 -24.007812 1.53125 -25.703125 3.21875 -27.265625 C 4.914062 -28.835938 6.6875 -30.054688 8.53125 -30.921875 C 10.84375 -32.085938 13.160156 -32.613281 15.484375 -32.5 C 17.804688 -32.394531 20.289062 -31.632812 22.9375 -30.21875 C 22.9375 -30.21875 22.96875 -30.28125 23.03125 -30.40625 C 23.03125 -30.6875 23.082031 -31.007812 23.1875 -31.375 C 23.289062 -31.75 23.515625 -32.070312 23.859375 -32.34375 C 24.316406 -32.6875 24.90625 -32.957031 25.625 -33.15625 C 26.351562 -33.351562 27.054688 -33.390625 27.734375 -33.265625 C 28.804688 -33.054688 29.472656 -32.507812 29.734375 -31.625 C 29.992188 -30.75 30.039062 -29.785156 29.875 -28.734375 C 29.707031 -27.691406 29.53125 -26.804688 29.34375 -26.078125 C 29.28125 -25.921875 29.25 -25.78125 29.25 -25.65625 C 28.144531 -21.195312 28.546875 -18.066406 30.453125 -16.265625 C 32.359375 -14.460938 35.117188 -13.628906 38.734375 -13.765625 C 42.347656 -13.910156 46.1875 -14.675781 50.25 -16.0625 C 54.3125 -17.445312 58.003906 -19.097656 61.328125 -21.015625 C 64.648438 -22.941406 66.941406 -24.828125 68.203125 -26.671875 Z M 6 -9.921875 C 7.414062 -8.960938 8.9375 -9.0625 10.5625 -10.21875 C 12.195312 -11.375 13.789062 -13.035156 15.34375 -15.203125 C 16.894531 -17.367188 18.175781 -19.53125 19.1875 -21.6875 C 20.207031 -23.84375 20.78125 -25.472656 20.90625 -26.578125 C 17.675781 -28.328125 14.90625 -28.640625 12.59375 -27.515625 C 10.289062 -26.398438 8.492188 -24.609375 7.203125 -22.140625 C 5.910156 -19.679688 5.160156 -17.242188 4.953125 -14.828125 C 4.753906 -12.421875 5.101562 -10.785156 6 -9.921875 Z M 6 -9.921875 "/></g></g></g><g fill="#000000" fill-opacity="1"><g transform="translate(663.759635, 396.652244)"><g><path d="M 22.65625 -53.578125 C 23.050781 -53.515625 23.316406 -53.226562 23.453125 -52.71875 C 23.597656 -52.207031 23.597656 -51.675781 23.453125 -51.125 C 23.316406 -50.570312 23.050781 -50.296875 22.65625 -50.296875 L 7.75 -50.4375 L 7.75 -50.015625 C 7.6875 -47.835938 7.550781 -45.222656 7.34375 -42.171875 C 7 -35.742188 6.828125 -29.222656 6.828125 -22.609375 C 6.828125 -20.359375 6.976562 -17.257812 7.28125 -13.3125 C 7.59375 -9.363281 8.226562 -5.832031 9.1875 -2.71875 C 9.25 -2.507812 9.445312 -2.125 9.78125 -1.5625 C 10.175781 -0.882812 10.554688 -0.125 10.921875 0.71875 C 11.296875 1.5625 11.46875 2.25 11.4375 2.78125 C 11.40625 3.320312 10.992188 3.488281 10.203125 3.28125 C 7.554688 2.414062 5.539062 0.304688 4.15625 -3.046875 C 2.769531 -6.398438 1.785156 -10.3125 1.203125 -14.78125 C 0.617188 -19.257812 0.3125 -23.628906 0.28125 -27.890625 C 0.25 -32.148438 0.296875 -35.601562 0.421875 -38.25 C 0.503906 -40.0625 0.578125 -41.878906 0.640625 -43.703125 C 0.703125 -46.003906 0.765625 -48.28125 0.828125 -50.53125 L -10.421875 -50.703125 C -11.378906 -50.703125 -11.925781 -50.882812 -12.0625 -51.25 C -12.207031 -51.625 -12.109375 -52.003906 -11.765625 -52.390625 C -11.429688 -52.773438 -10.984375 -53 -10.421875 -53.0625 L 0.921875 -53.25 L 1.65625 -64.140625 C 1.78125 -65.890625 1.921875 -67.671875 2.078125 -69.484375 C 2.078125 -70.441406 2.109375 -71.398438 2.171875 -72.359375 C 2.171875 -73.765625 2.507812 -75.082031 3.1875 -76.3125 C 3.988281 -77.394531 4.972656 -77.796875 6.140625 -77.515625 C 7.148438 -77.179688 7.71875 -76.472656 7.84375 -75.390625 C 7.96875 -73.640625 8.03125 -71.875 8.03125 -70.09375 C 8.03125 -69.070312 8.03125 -68.054688 8.03125 -67.046875 C 8.03125 -65.910156 8.03125 -64.769531 8.03125 -63.625 L 7.75 -53.34375 Z M 22.65625 -53.578125 "/></g></g></g><g fill="#000000" fill-opacity="1"><g transform="translate(680.510167, 396.652244)"><g><path d="M 63.359375 -25.5625 C 63.753906 -26.082031 64.101562 -26.226562 64.40625 -26 C 64.71875 -25.769531 64.796875 -25.347656 64.640625 -24.734375 C 63.898438 -20.796875 59.503906 -17.441406 51.453125 -14.671875 C 46.367188 -12.703125 41.835938 -11.820312 37.859375 -12.03125 C 33.878906 -12.25 30.6875 -13.8125 28.28125 -16.71875 C 25.882812 -19.632812 24.546875 -24.195312 24.265625 -30.40625 C 24.117188 -33.175781 23.5625 -34.328125 22.59375 -33.859375 C 21.625 -33.398438 20.460938 -31.988281 19.109375 -29.625 C 17.753906 -27.257812 16.398438 -24.582031 15.046875 -21.59375 C 13.691406 -18.613281 12.535156 -15.992188 11.578125 -13.734375 C 10.628906 -11.472656 10.125 -10.203125 10.0625 -9.921875 C 9.90625 -9.429688 9.734375 -8.953125 9.546875 -8.484375 C 9.148438 -7.128906 8.644531 -5.804688 8.03125 -4.515625 C 7.476562 -3.503906 6.644531 -2.8125 5.53125 -2.4375 C 4.425781 -2.070312 3.257812 -2.117188 2.03125 -2.578125 C 1.289062 -3.015625 0.78125 -3.601562 0.5 -4.34375 C 0.101562 -5.632812 0 -6.878906 0.1875 -8.078125 C 0.1875 -8.234375 0.1875 -8.367188 0.1875 -8.484375 C 0.613281 -14.515625 0.78125 -23.453125 0.6875 -35.296875 C 0.6875 -42.867188 0.738281 -50.921875 0.84375 -59.453125 C 0.957031 -67.992188 1.210938 -76.414062 1.609375 -84.71875 C 2.109375 -93.726562 3.007812 -101.96875 4.3125 -109.4375 C 5.625 -116.914062 7.6875 -122.96875 10.5 -127.59375 C 13.3125 -132.226562 17.222656 -134.820312 22.234375 -135.375 C 24.390625 -135.59375 26.566406 -135.363281 28.765625 -134.6875 C 30.960938 -134.007812 33.046875 -132.71875 35.015625 -130.8125 C 39.203125 -126.8125 42.25 -121.257812 44.15625 -114.15625 C 46.0625 -107.050781 46.269531 -98.859375 44.78125 -89.578125 C 43.289062 -80.304688 39.613281 -70.425781 33.75 -59.9375 C 27.894531 -49.445312 19.351562 -38.832031 8.125 -28.09375 C 8 -27.820312 7.9375 -27.609375 7.9375 -27.453125 C 7.84375 -27.328125 7.796875 -27.234375 7.796875 -27.171875 C 7.796875 -27.109375 7.796875 -27.054688 7.796875 -27.015625 C 7.796875 -26.972656 7.796875 -26.9375 7.796875 -26.90625 C 7.796875 -26.875 7.796875 -26.859375 7.796875 -26.859375 C 7.796875 -26.859375 7.816406 -26.859375 7.859375 -26.859375 C 7.910156 -26.859375 7.9375 -26.828125 7.9375 -26.765625 C 7.9375 -26.703125 7.953125 -26.628906 7.984375 -26.546875 C 8.015625 -26.472656 8.03125 -26.351562 8.03125 -26.1875 C 8.03125 -26.019531 8.03125 -25.816406 8.03125 -25.578125 C 8.03125 -25.347656 8.03125 -25.0625 8.03125 -24.71875 C 8.03125 -24.382812 8.015625 -23.992188 7.984375 -23.546875 C 7.953125 -23.109375 7.9375 -22.597656 7.9375 -22.015625 C 8.613281 -23.148438 9.289062 -24.363281 9.96875 -25.65625 C 11.507812 -28.632812 13.304688 -31.410156 15.359375 -33.984375 C 17.421875 -36.554688 20.191406 -38.148438 23.671875 -38.765625 C 25.148438 -38.941406 26.703125 -38.816406 28.328125 -38.390625 C 29.960938 -37.960938 31.039062 -36.820312 31.5625 -34.96875 C 31.957031 -32.757812 32.097656 -30.46875 31.984375 -28.09375 C 31.859375 -26.40625 31.878906 -24.816406 32.046875 -23.328125 C 32.210938 -21.835938 32.71875 -20.566406 33.5625 -19.515625 C 34.414062 -18.472656 35.882812 -17.78125 37.96875 -17.4375 C 40.800781 -17.007812 43.925781 -17.101562 47.34375 -17.71875 C 50.757812 -18.332031 53.925781 -19.316406 56.84375 -20.671875 C 59.769531 -22.023438 61.941406 -23.65625 63.359375 -25.5625 Z M 15.640625 -123.203125 C 13.890625 -118.523438 12.46875 -111.785156 11.375 -102.984375 C 10.28125 -94.191406 9.460938 -84.90625 8.921875 -75.125 C 8.390625 -65.34375 8.050781 -56.644531 7.90625 -49.03125 C 7.769531 -41.414062 7.703125 -36.421875 7.703125 -34.046875 C 11.921875 -37.429688 16.375 -42.660156 21.0625 -49.734375 C 25.75 -56.816406 29.890625 -64.585938 33.484375 -73.046875 C 37.085938 -81.503906 39.257812 -89.53125 40 -97.125 C 40.40625 -103.675781 39.453125 -110.148438 37.140625 -116.546875 C 34.835938 -122.953125 31.960938 -127.539062 28.515625 -130.3125 C 26.085938 -132 23.71875 -132.164062 21.40625 -130.8125 C 19.101562 -129.457031 17.179688 -126.921875 15.640625 -123.203125 Z M 15.640625 -123.203125 "/></g></g></g><g fill="#000000" fill-opacity="1"><g transform="translate(741.337191, 396.652244)"><g/></g></g><g fill="#000000" fill-opacity="1"><g transform="translate(764.778675, 396.652244)"><g/></g></g><g fill="#000000" fill-opacity="1"><g transform="translate(788.226555, 396.652244)"><g><path d="M 110.65625 -24.40625 C 111.332031 -24.5 111.875 -24.375 112.28125 -24.03125 C 112.695312 -23.695312 112.800781 -23.285156 112.59375 -22.796875 C 109.757812 -15.410156 106.492188 -8.234375 102.796875 -1.265625 C 99.109375 5.703125 94.757812 12.429688 89.75 18.921875 C 86.03125 23.773438 81.9375 28.40625 77.46875 32.8125 C 74.207031 35.945312 70.644531 38.726562 66.78125 41.15625 C 62.925781 43.582031 58.707031 45.535156 54.125 47.015625 C 37.269531 52.367188 21.90625 50 8.03125 39.90625 C 4.519531 37.351562 1.457031 34.429688 -1.15625 31.140625 C -3.769531 27.847656 -6.015625 24.34375 -7.890625 20.625 C -10.867188 14.75 -13.203125 8.734375 -14.890625 2.578125 C -16.585938 -3.566406 -17.742188 -9.851562 -18.359375 -16.28125 C -18.578125 -19.269531 -18.71875 -22.394531 -18.78125 -25.65625 C -18.84375 -27.28125 -18.90625 -28.972656 -18.96875 -30.734375 C -18.5625 -46.015625 -16.296875 -61.066406 -12.171875 -75.890625 C -8.054688 -90.722656 -1.722656 -105.109375 6.828125 -119.046875 C 11.804688 -127.171875 17.820312 -134.675781 24.875 -141.5625 C 30.6875 -147.3125 37.53125 -151.910156 45.40625 -155.359375 C 51.894531 -158.160156 58.753906 -159.316406 65.984375 -158.828125 C 68.234375 -158.703125 70.367188 -158.222656 72.390625 -157.390625 C 81.710938 -153.609375 88.066406 -147.394531 91.453125 -138.75 C 91.609375 -138.414062 91.71875 -138.03125 91.78125 -137.59375 C 91.988281 -136.332031 91.375 -135.425781 89.9375 -134.875 C 88.519531 -134.195312 87.378906 -134.394531 86.515625 -135.46875 C 85.742188 -136.488281 85.097656 -137.535156 84.578125 -138.609375 C 84.515625 -138.765625 84.40625 -138.9375 84.25 -139.125 C 81.882812 -143.175781 78.703125 -146.664062 74.703125 -149.59375 C 71.316406 -152.019531 67.734375 -153.503906 63.953125 -154.046875 C 60.171875 -154.585938 56.25 -154.425781 52.1875 -153.5625 C 49.414062 -152.882812 46.84375 -151.9375 44.46875 -150.71875 C 42.101562 -149.507812 39.832031 -148.117188 37.65625 -146.546875 C 31.4375 -141.804688 25.988281 -136.394531 21.3125 -130.3125 C 10.820312 -116.769531 3.007812 -102.109375 -2.125 -86.328125 C -5.632812 -76.054688 -8.253906 -65.644531 -9.984375 -55.09375 C -11.722656 -44.539062 -12.285156 -33.882812 -11.671875 -23.125 C -11.273438 -15.269531 -10.09375 -7.597656 -8.125 -0.109375 C -6.15625 7.378906 -3.140625 14.628906 0.921875 21.640625 C 5.378906 29.359375 11.804688 35.445312 20.203125 39.90625 C 27.710938 43.789062 35.328125 45.476562 43.046875 44.96875 C 50.773438 44.457031 57.882812 41.972656 64.375 37.515625 C 68.550781 34.585938 72.300781 31.265625 75.625 27.546875 C 80.238281 22.472656 84.421875 17.175781 88.171875 11.65625 C 91.929688 6.132812 95.472656 0.460938 98.796875 -5.359375 C 100.828125 -9.140625 102.78125 -12.953125 104.65625 -16.796875 C 105.332031 -18.148438 106.007812 -19.503906 106.6875 -20.859375 C 107.113281 -21.742188 107.609375 -22.523438 108.171875 -23.203125 C 108.742188 -23.878906 109.570312 -24.28125 110.65625 -24.40625 Z M 110.65625 -24.40625 "/></g></g></g><g fill="#000000" fill-opacity="1"><g transform="translate(894.86685, 396.652244)"><g><path d="M 68.203125 -26.671875 C 68.753906 -27.410156 69.335938 -27.945312 69.953125 -28.28125 C 70.566406 -28.625 70.9375 -28.625 71.0625 -28.28125 C 71.1875 -27.945312 70.847656 -27.132812 70.046875 -25.84375 C 68.234375 -23.132812 65.5625 -20.5625 62.03125 -18.125 C 58.507812 -15.695312 54.617188 -13.625 50.359375 -11.90625 C 46.097656 -10.1875 41.9375 -9.046875 37.875 -8.484375 C 33.820312 -7.929688 30.382812 -8.203125 27.5625 -9.296875 C 24.75 -10.390625 23.003906 -12.519531 22.328125 -15.6875 C 19.960938 -11.84375 17.15625 -8.835938 13.90625 -6.671875 C 10.664062 -4.503906 7.582031 -3.585938 4.65625 -3.921875 C 1.332031 -4.378906 -0.878906 -5.625 -1.984375 -7.65625 C -3.085938 -9.6875 -3.453125 -12.023438 -3.078125 -14.671875 C -2.710938 -17.316406 -1.914062 -19.820312 -0.6875 -22.1875 C 0.226562 -24.007812 1.53125 -25.703125 3.21875 -27.265625 C 4.914062 -28.835938 6.6875 -30.054688 8.53125 -30.921875 C 10.84375 -32.085938 13.160156 -32.613281 15.484375 -32.5 C 17.804688 -32.394531 20.289062 -31.632812 22.9375 -30.21875 C 22.9375 -30.21875 22.96875 -30.28125 23.03125 -30.40625 C 23.03125 -30.6875 23.082031 -31.007812 23.1875 -31.375 C 23.289062 -31.75 23.515625 -32.070312 23.859375 -32.34375 C 24.316406 -32.6875 24.90625 -32.957031 25.625 -33.15625 C 26.351562 -33.351562 27.054688 -33.390625 27.734375 -33.265625 C 28.804688 -33.054688 29.472656 -32.507812 29.734375 -31.625 C 29.992188 -30.75 30.039062 -29.785156 29.875 -28.734375 C 29.707031 -27.691406 29.53125 -26.804688 29.34375 -26.078125 C 29.28125 -25.921875 29.25 -25.78125 29.25 -25.65625 C 28.144531 -21.195312 28.546875 -18.066406 30.453125 -16.265625 C 32.359375 -14.460938 35.117188 -13.628906 38.734375 -13.765625 C 42.347656 -13.910156 46.1875 -14.675781 50.25 -16.0625 C 54.3125 -17.445312 58.003906 -19.097656 61.328125 -21.015625 C 64.648438 -22.941406 66.941406 -24.828125 68.203125 -26.671875 Z M 6 -9.921875 C 7.414062 -8.960938 8.9375 -9.0625 10.5625 -10.21875 C 12.195312 -11.375 13.789062 -13.035156 15.34375 -15.203125 C 16.894531 -17.367188 18.175781 -19.53125 19.1875 -21.6875 C 20.207031 -23.84375 20.78125 -25.472656 20.90625 -26.578125 C 17.675781 -28.328125 14.90625 -28.640625 12.59375 -27.515625 C 10.289062 -26.398438 8.492188 -24.609375 7.203125 -22.140625 C 5.910156 -19.679688 5.160156 -17.242188 4.953125 -14.828125 C 4.753906 -12.421875 5.101562 -10.785156 6 -9.921875 Z M 6 -9.921875 "/></g></g></g><g fill="#000000" fill-opacity="1"><g transform="translate(960.853705, 396.652244)"><g><path d="M 14.71875 -116.421875 C 17.882812 -120.265625 21.070312 -122.421875 24.28125 -122.890625 C 27.5 -123.367188 30.484375 -122.492188 33.234375 -120.265625 C 35.992188 -118.035156 38.195312 -114.820312 39.84375 -110.625 C 41.488281 -106.425781 42.3125 -101.601562 42.3125 -96.15625 C 42.3125 -90.71875 41.234375 -85.015625 39.078125 -79.046875 C 35.234375 -69.171875 30.265625 -59.476562 24.171875 -49.96875 C 18.085938 -40.46875 12.335938 -32.765625 6.921875 -26.859375 C 6.828125 -26.671875 6.78125 -26.492188 6.78125 -26.328125 C 6.78125 -26.160156 6.78125 -26.003906 6.78125 -25.859375 C 6.78125 -25.722656 6.828125 -25.6875 6.921875 -25.75 C 11.046875 -30.550781 14.8125 -33.8125 18.21875 -35.53125 C 21.632812 -37.25 24.300781 -37.789062 26.21875 -37.15625 C 28.144531 -36.53125 28.992188 -35.117188 28.765625 -32.921875 C 28.535156 -30.722656 26.867188 -28.128906 23.765625 -25.140625 C 19.640625 -21.546875 15.78125 -19.410156 12.1875 -18.734375 C 14.269531 -15.753906 16.507812 -13.332031 18.90625 -11.46875 C 21.3125 -9.601562 23.609375 -8.210938 25.796875 -7.296875 C 26.597656 -6.953125 27.304688 -6.644531 27.921875 -6.375 C 29.273438 -5.875 30.179688 -5.332031 30.640625 -4.75 C 30.796875 -4.539062 30.914062 -4.28125 31 -3.96875 C 31.09375 -3.65625 30.992188 -3.285156 30.703125 -2.859375 C 30.410156 -2.429688 29.757812 -1.941406 28.75 -1.390625 C 26.375 -0.242188 24.003906 -0.28125 21.640625 -1.5 C 19.273438 -2.71875 17.09375 -4.507812 15.09375 -6.875 C 13.09375 -9.238281 11.460938 -11.484375 10.203125 -13.609375 C 8.941406 -15.734375 8.21875 -17.101562 8.03125 -17.71875 C 7.8125 -17.382812 7.6875 -16.609375 7.65625 -15.390625 C 7.625 -14.171875 7.609375 -12.75 7.609375 -11.125 C 7.609375 -9.09375 7.546875 -7.140625 7.421875 -5.265625 C 7.421875 -4.921875 7.421875 -4.613281 7.421875 -4.34375 C 7.421875 -3.164062 7.25 -2.378906 6.90625 -1.984375 C 6.570312 -1.585938 5.6875 -1.28125 4.25 -1.0625 C 3.164062 -0.8125 2.203125 -0.800781 1.359375 -1.03125 C 0.515625 -1.269531 0.0625 -1.957031 0 -3.09375 C 0 -5.125 0 -7.15625 0 -9.1875 C 0.0625 -17.238281 0.171875 -25.328125 0.328125 -33.453125 C 0.390625 -39.265625 0.785156 -48.847656 1.515625 -62.203125 C 1.578125 -64.296875 1.816406 -67.570312 2.234375 -72.03125 C 2.648438 -76.488281 3.328125 -81.492188 4.265625 -87.046875 C 5.203125 -92.597656 6.515625 -97.992188 8.203125 -103.234375 C 9.898438 -108.484375 12.070312 -112.878906 14.71875 -116.421875 Z M 18.96875 -27.359375 C 22.164062 -31.023438 23.707031 -33.25 23.59375 -34.03125 C 23.488281 -34.8125 22.457031 -34.625 20.5 -33.46875 C 18.550781 -32.320312 16.335938 -30.675781 13.859375 -28.53125 C 11.390625 -26.394531 9.367188 -24.222656 7.796875 -22.015625 C 8.078125 -21.921875 8.929688 -22.109375 10.359375 -22.578125 C 11.785156 -23.054688 13.320312 -23.71875 14.96875 -24.5625 C 16.613281 -25.414062 17.945312 -26.347656 18.96875 -27.359375 Z M 36.953125 -90.109375 C 37.140625 -91.804688 37.1875 -94.140625 37.09375 -97.109375 C 37 -100.078125 36.660156 -103.207031 36.078125 -106.5 C 35.492188 -109.789062 34.609375 -112.664062 33.421875 -115.125 C 32.242188 -117.582031 30.71875 -119.117188 28.84375 -119.734375 C 26.46875 -120.472656 23.941406 -119.035156 21.265625 -115.421875 C 18.585938 -111.804688 16.082031 -105.53125 13.75 -96.59375 C 11.414062 -87.65625 9.570312 -75.578125 8.21875 -60.359375 C 7.6875 -54.660156 7.265625 -49.070312 6.953125 -43.59375 C 6.648438 -38.125 6.425781 -33.867188 6.28125 -30.828125 C 15.84375 -44.816406 23.09375 -56.601562 28.03125 -66.1875 C 32.96875 -75.769531 35.941406 -83.742188 36.953125 -90.109375 Z M 36.953125 -90.109375 "/></g></g></g><g fill="#000000" fill-opacity="1"><g transform="translate(996.154366, 396.652244)"><g><path d="M 41.0625 -22.109375 C 41.675781 -22.441406 42.289062 -22.691406 42.90625 -22.859375 C 43.519531 -23.035156 43.910156 -23.019531 44.078125 -22.8125 C 44.253906 -22.613281 44.003906 -22.097656 43.328125 -21.265625 C 41.140625 -18.835938 38.578125 -16.625 35.640625 -14.625 C 32.703125 -12.625 29.710938 -10.914062 26.671875 -9.5 C 24.242188 -8.425781 21.675781 -7.566406 18.96875 -6.921875 C 16.257812 -6.273438 13.582031 -6.132812 10.9375 -6.5 C 8.289062 -6.875 5.890625 -8.046875 3.734375 -10.015625 C 1.148438 -12.597656 -0.253906 -15.878906 -0.484375 -19.859375 C -0.710938 -23.847656 0.21875 -27.195312 2.3125 -29.90625 C 5.070312 -33.007812 8.566406 -35.003906 12.796875 -35.890625 C 17.035156 -36.785156 20.84375 -36.113281 24.21875 -33.875 C 25.851562 -32.726562 26.515625 -31.394531 26.203125 -29.875 C 25.898438 -28.351562 25.085938 -26.929688 23.765625 -25.609375 C 22.441406 -24.285156 20.960938 -23.285156 19.328125 -22.609375 C 16.898438 -21.648438 14.722656 -21.457031 12.796875 -22.03125 C 10.878906 -22.601562 9.382812 -23.363281 8.3125 -24.3125 C 7.539062 -24.039062 7.0625 -22.96875 6.875 -21.09375 C 6.382812 -17.550781 7.492188 -14.671875 10.203125 -12.453125 C 12.441406 -10.765625 15.269531 -10.304688 18.6875 -11.078125 C 22.101562 -11.847656 25.601562 -13.203125 29.1875 -15.140625 C 32.769531 -17.078125 35.960938 -18.921875 38.765625 -20.671875 C 39.617188 -21.128906 40.382812 -21.609375 41.0625 -22.109375 Z M 18.640625 -31.015625 C 18.242188 -31.566406 17.582031 -31.785156 16.65625 -31.671875 C 15.726562 -31.566406 14.78125 -31.28125 13.8125 -30.8125 C 12.84375 -30.351562 12 -29.867188 11.28125 -29.359375 C 10.5625 -28.859375 10.25 -28.5 10.34375 -28.28125 C 10.34375 -28.15625 10.425781 -27.9375 10.59375 -27.625 C 10.757812 -27.320312 11.007812 -27 11.34375 -26.65625 C 11.6875 -26.320312 12.140625 -26.085938 12.703125 -25.953125 C 13.273438 -25.816406 14.007812 -25.859375 14.90625 -26.078125 C 16.320312 -26.472656 17.3125 -26.992188 17.875 -27.640625 C 18.445312 -28.285156 18.769531 -28.921875 18.84375 -29.546875 C 18.925781 -30.179688 18.859375 -30.671875 18.640625 -31.015625 Z M 18.640625 -31.015625 "/></g></g></g><g fill="#000000" fill-opacity="1"><g transform="translate(1035.238888, 396.652244)"><g><path d="M 13.65625 -16.796875 C 14.707031 -15.441406 15.382812 -14.039062 15.6875 -12.59375 C 16 -11.144531 16.113281 -9.578125 16.03125 -7.890625 C 15.957031 -6.203125 15.410156 -4.695312 14.390625 -3.375 C 13.378906 -2.050781 11.691406 -1.25 9.328125 -0.96875 C 6.953125 -0.78125 4.832031 -1.140625 2.96875 -2.046875 C 1.113281 -2.960938 -0.0507812 -4.28125 -0.53125 -6 C -1.007812 -7.71875 -0.429688 -9.734375 1.203125 -12.046875 C 2.273438 -13.335938 3.566406 -14.457031 5.078125 -15.40625 C 5.597656 -15.75 6.132812 -16.117188 6.6875 -16.515625 C 4.875 -18.484375 3.148438 -20.5 1.515625 -22.5625 C -0.109375 -24.625 -1.148438 -26.46875 -1.609375 -28.09375 C -2.109375 -29.976562 -1.796875 -31.75 -0.671875 -33.40625 C 0.453125 -35.070312 2.398438 -36.039062 5.171875 -36.3125 C 6.523438 -36.4375 7.789062 -36.367188 8.96875 -36.109375 C 10.15625 -35.847656 11.257812 -35.269531 12.28125 -34.375 C 12.488281 -34.15625 12.640625 -33.914062 12.734375 -33.65625 C 12.828125 -33.394531 12.78125 -33.066406 12.59375 -32.671875 C 12.257812 -32.054688 11.753906 -31.75 11.078125 -31.75 C 10.585938 -31.75 10.109375 -31.8125 9.640625 -31.9375 C 9.148438 -32.144531 8.707031 -32.34375 8.3125 -32.53125 C 8.03125 -32.6875 7.765625 -32.828125 7.515625 -32.953125 C 6.628906 -33.285156 5.945312 -33.234375 5.46875 -32.796875 C 4.988281 -32.367188 4.75 -31.710938 4.75 -30.828125 C 4.8125 -29.253906 5.457031 -27.578125 6.6875 -25.796875 C 7.914062 -24.015625 9.132812 -22.367188 10.34375 -20.859375 C 10.832031 -20.335938 11.242188 -19.828125 11.578125 -19.328125 C 11.921875 -18.992188 12.613281 -18.148438 13.65625 -16.796875 Z M 7.390625 -4.4375 C 8.273438 -4.488281 8.851562 -4.976562 9.125 -5.90625 C 9.40625 -6.832031 9.507812 -7.847656 9.4375 -8.953125 C 9.363281 -10.054688 9.296875 -10.882812 9.234375 -11.4375 C 9.109375 -11.78125 8.890625 -12 8.578125 -12.09375 C 8.273438 -12.1875 7.984375 -12.171875 7.703125 -12.046875 C 6.691406 -11.242188 5.945312 -10.226562 5.46875 -9 C 4.988281 -7.769531 5.023438 -6.691406 5.578125 -5.765625 C 5.765625 -5.429688 6.007812 -5.140625 6.3125 -4.890625 C 6.625 -4.640625 6.984375 -4.488281 7.390625 -4.4375 Z M 7.390625 -4.4375 "/></g></g></g></svg>