<svg xmlns="http://www.w3.org/2000/svg" xmlns:xlink="http://www.w3.org/1999/xlink" width="1640" zoomAndPan="magnify" viewBox="0 0 1230 693.000001" height="924" preserveAspectRatio="xMidYMid meet" version="1.0"><path fill="#fefefe" d="M 798.742188 330.449219 C 798.742188 312.96875 787.988281 300.242188 767.371094 300.242188 L 700.78125 300.242188 L 700.78125 390.855469 L 722.648438 390.855469 L 722.648438 359.933594 L 748.550781 359.933594 L 773.914062 390.855469 L 798.5625 390.855469 L 798.5625 388.882812 L 773.914062 359.398438 C 789.421875 356.261719 798.742188 344.96875 798.742188 330.449219 Z M 764.953125 341.652344 L 722.738281 341.652344 L 722.738281 319.066406 L 764.953125 319.066406 C 772.75 319.066406 777.769531 323.1875 777.769531 330.359375 C 777.769531 337.707031 772.929688 341.652344 764.953125 341.652344 Z M 764.953125 341.652344 " fill-opacity="1" fill-rule="nonzero"/><path fill="#fefefe" d="M 1129.375 300.242188 L 1108.847656 300.242188 L 1108.847656 334.660156 L 1053.730469 334.660156 L 1053.730469 300.242188 L 1031.589844 300.242188 L 1031.589844 390.945312 L 1053.730469 390.945312 L 1053.730469 355.183594 L 1108.847656 355.183594 L 1108.847656 390.945312 L 1129.375 390.945312 Z M 1129.375 300.242188 " fill-opacity="1" fill-rule="nonzero"/><path fill="#fefefe" d="M 642.253906 300.242188 L 617.875 376.515625 L 616.53125 376.515625 L 592.0625 300.242188 L 553.074219 300.242188 L 553.074219 390.945312 L 573.957031 390.945312 L 573.957031 316.464844 L 575.214844 316.464844 L 599.589844 390.945312 L 633.203125 390.945312 L 657.667969 316.464844 L 658.925781 316.464844 L 658.925781 390.945312 L 680.433594 390.945312 L 680.433594 300.242188 Z M 642.253906 300.242188 " fill-opacity="1" fill-rule="nonzero"/><path fill="#fefefe" d="M 404.027344 337.347656 C 396.320312 336.542969 381.886719 335.199219 374.179688 334.390625 C 366.5625 333.585938 362.171875 331.34375 362.171875 326.324219 C 362.171875 321.484375 366.832031 317.453125 385.652344 317.453125 C 402.324219 317.453125 417.648438 321.035156 431.003906 327.488281 L 431.003906 307.234375 C 417.648438 300.871094 402.859375 297.734375 384.488281 297.734375 C 358.675781 297.734375 340.839844 308.488281 340.839844 326.773438 C 340.839844 342.1875 351.324219 350.613281 372.296875 352.945312 C 379.917969 353.75 392.824219 354.914062 401.875 355.632812 C 411.734375 356.4375 414.601562 359.488281 414.601562 363.96875 C 414.601562 370.152344 407.699219 373.917969 390.222656 373.917969 C 372.476562 373.917969 354.464844 368.089844 341.644531 359.933594 L 341.644531 380.816406 C 351.953125 387.71875 369.699219 393.542969 389.507812 393.542969 C 417.648438 393.542969 435.753906 382.699219 435.753906 363.25 C 435.933594 348.550781 426.253906 339.679688 404.027344 337.347656 Z M 404.027344 337.347656 " fill-opacity="1" fill-rule="nonzero"/><path fill="#fefefe" d="M 450.273438 300.242188 L 450.273438 390.945312 L 534.792969 390.945312 L 534.792969 372.394531 L 471.15625 372.394531 L 471.15625 354.019531 L 533.714844 354.019531 L 533.714844 335.644531 L 471.15625 335.644531 L 471.15625 318.796875 L 534.792969 318.796875 L 534.792969 300.242188 Z M 450.273438 300.242188 " fill-opacity="1" fill-rule="nonzero"/><path fill="#fefefe" d="M 986.328125 337.347656 C 978.621094 336.542969 964.191406 335.199219 956.484375 334.390625 C 948.867188 333.585938 944.472656 331.34375 944.472656 326.324219 C 944.472656 321.484375 949.136719 317.453125 967.957031 317.453125 C 984.628906 317.453125 999.953125 321.035156 1013.308594 327.488281 L 1013.308594 307.234375 C 999.953125 300.871094 985.164062 297.734375 966.792969 297.734375 C 940.980469 297.734375 923.144531 308.488281 923.144531 326.773438 C 923.144531 342.1875 933.628906 350.613281 954.601562 352.945312 C 962.21875 353.75 975.125 354.914062 984.179688 355.632812 C 994.039062 356.4375 996.90625 359.488281 996.90625 363.96875 C 996.90625 370.152344 990.003906 373.917969 972.527344 373.917969 C 954.78125 373.917969 936.765625 368.089844 923.949219 359.933594 L 923.949219 380.816406 C 934.257812 387.71875 952.003906 393.542969 971.808594 393.542969 C 999.953125 393.542969 1018.058594 382.699219 1018.058594 363.25 C 1018.238281 348.550781 1008.558594 339.679688 986.328125 337.347656 Z M 986.328125 337.347656 " fill-opacity="1" fill-rule="nonzero"/><path fill="#fefefe" d="M 886.394531 300.242188 L 886.394531 346.671875 C 886.394531 364.238281 875.730469 373.917969 859.6875 373.917969 C 843.554688 373.917969 832.980469 364.417969 832.980469 346.402344 L 832.980469 300.242188 L 811.199219 300.242188 L 811.199219 344.339844 C 811.199219 377.234375 831.722656 393.542969 860.046875 393.542969 C 887.203125 393.542969 908.265625 377.949219 908.265625 345.414062 L 908.265625 300.242188 Z M 886.394531 300.242188 " fill-opacity="1" fill-rule="nonzero"/><path fill="#ffffff" d="M 265.910156 345.058594 C 265.910156 349.449219 263.671875 350.164062 258.113281 350.164062 C 252.199219 350.164062 251.125 349.179688 250.496094 344.699219 C 249.332031 333.316406 241.625 323.636719 228.71875 322.558594 C 224.59375 322.203125 223.609375 320.679688 223.609375 315.570312 C 223.609375 310.820312 224.324219 308.578125 228 308.578125 C 250.40625 308.667969 265.910156 326.683594 265.910156 345.058594 Z M 298.535156 345.058594 C 298.535156 310.910156 275.414062 274.789062 221.996094 274.789062 L 115.878906 274.789062 C 113.726562 274.789062 112.382812 275.863281 112.382812 277.835938 C 112.382812 278.914062 113.1875 279.898438 113.90625 280.4375 C 117.757812 283.484375 123.496094 286.890625 131.023438 290.652344 C 138.375 294.328125 144.109375 296.746094 149.84375 299.078125 C 152.265625 300.0625 153.160156 301.140625 153.160156 302.484375 C 153.160156 304.367188 151.816406 305.53125 149.21875 305.53125 L 64.96875 305.53125 C 62.460938 305.53125 61.292969 307.144531 61.292969 308.757812 C 61.292969 310.101562 61.742188 311.265625 62.90625 312.433594 C 69.71875 319.601562 80.652344 328.207031 96.519531 338.15625 C 110.410156 346.847656 127.617188 356.261719 141.332031 362.804688 C 143.660156 363.878906 144.378906 365.132812 144.378906 366.476562 C 144.289062 368 143.125 369.257812 140.433594 369.257812 L 101.804688 369.257812 C 99.65625 369.257812 98.398438 370.421875 98.398438 372.214844 C 98.398438 373.199219 99.207031 374.453125 100.28125 375.441406 C 109.066406 383.417969 123.136719 392.109375 141.867188 400.085938 C 166.875 410.753906 192.238281 417.117188 220.738281 417.117188 C 274.785156 417.117188 298.535156 376.695312 298.535156 345.058594 Z M 228 393.542969 C 201.46875 393.542969 179.332031 371.945312 179.332031 345.058594 C 179.332031 318.527344 201.46875 297.285156 228 297.285156 C 255.246094 297.285156 276.488281 318.527344 276.488281 345.058594 C 276.398438 371.945312 255.15625 393.542969 228 393.542969 Z M 228 393.542969 " fill-opacity="1" fill-rule="nonzero"/><path fill="#ff642d" d="M 266.546875 345.023438 C 266.546875 349.429688 264.300781 350.148438 258.734375 350.148438 C 252.804688 350.148438 251.726562 349.160156 251.097656 344.664062 C 249.929688 333.246094 242.203125 323.539062 229.265625 322.460938 C 225.132812 322.101562 224.144531 320.570312 224.144531 315.449219 C 224.144531 310.683594 224.863281 308.433594 228.546875 308.433594 C 251.007812 308.523438 266.546875 326.59375 266.546875 345.023438 Z M 299.25 345.023438 C 299.25 310.773438 276.070312 274.542969 222.527344 274.542969 L 116.152344 274.542969 C 113.996094 274.542969 112.648438 275.621094 112.648438 277.597656 C 112.648438 278.679688 113.457031 279.667969 114.175781 280.207031 C 118.039062 283.261719 123.789062 286.679688 131.335938 290.453125 C 138.703125 294.140625 144.453125 296.566406 150.203125 298.90625 C 152.628906 299.894531 153.527344 300.972656 153.527344 302.320312 C 153.527344 304.210938 152.179688 305.378906 149.574219 305.378906 L 65.125 305.378906 C 62.609375 305.378906 61.441406 306.996094 61.441406 308.613281 C 61.441406 309.964844 61.890625 311.132812 63.058594 312.300781 C 69.882812 319.492188 80.84375 328.125 96.746094 338.101562 C 110.671875 346.824219 127.921875 356.261719 141.667969 362.824219 C 144.003906 363.902344 144.722656 365.164062 144.722656 366.511719 C 144.632812 368.039062 143.464844 369.296875 140.769531 369.296875 L 102.046875 369.296875 C 99.890625 369.296875 98.632812 370.464844 98.632812 372.265625 C 98.632812 373.253906 99.441406 374.511719 100.519531 375.5 C 109.324219 383.503906 123.429688 392.222656 142.207031 400.222656 C 167.273438 410.921875 192.699219 417.304688 221.269531 417.304688 C 275.441406 417.304688 299.25 376.757812 299.25 345.023438 Z M 228.546875 393.660156 C 201.953125 393.660156 179.761719 371.996094 179.761719 345.023438 C 179.761719 318.414062 201.953125 297.109375 228.546875 297.109375 C 255.859375 297.109375 277.148438 318.414062 277.148438 345.023438 C 277.058594 371.996094 255.769531 393.660156 228.546875 393.660156 Z M 228.546875 393.660156 " fill-opacity="1" fill-rule="nonzero"/></svg>