<svg xmlns="http://www.w3.org/2000/svg" xmlns:xlink="http://www.w3.org/1999/xlink" width="1080" zoomAndPan="magnify" viewBox="0 0 810 809.999993" height="1080" preserveAspectRatio="xMidYMid meet" version="1.0"><defs><clipPath id="0442470660"><path d="M 115 134 L 707 134 L 707 743 L 115 743 Z M 115 134 " clip-rule="nonzero"/></clipPath><clipPath id="a71ce1c0da"><path d="M 274.828125 767.890625 L 80.9375 601.109375 L 579.316406 21.71875 L 773.207031 188.496094 Z M 274.828125 767.890625 " clip-rule="nonzero"/></clipPath><clipPath id="8262e93602"><path d="M 773.207031 188.496094 L 579.316406 21.71875 L 80.9375 601.109375 L 274.828125 767.890625 Z M 773.207031 188.496094 " clip-rule="nonzero"/></clipPath><clipPath id="79440d9619"><path d="M 773.207031 188.496094 L 579.316406 21.71875 L 80.9375 601.109375 L 274.828125 767.890625 Z M 773.207031 188.496094 " clip-rule="nonzero"/></clipPath></defs><g clip-path="url(#0442470660)"><g clip-path="url(#a71ce1c0da)"><g clip-path="url(#8262e93602)"><g clip-path="url(#79440d9619)"><path fill="#000000" d="M 211.527344 471.449219 C 193.109375 512.011719 168.75 549.40625 138.855469 582.261719 C 236.773438 579.457031 333.789062 553.003906 420.277344 507.160156 C 510.480469 459.367188 592.023438 389.988281 648.453125 304.4375 C 679.027344 258.070312 702.878906 203.148438 693.253906 146.535156 C 691.996094 139.09375 701.933594 128.140625 703.867188 139.5 C 712.660156 191.273438 696.882812 243.003906 671.960938 288.128906 C 646.28125 334.640625 611.355469 376.609375 573.34375 413.527344 C 496.265625 488.398438 400.722656 543.8125 297.632812 574.058594 C 247.453125 588.789062 195.625 597.246094 143.425781 599.320312 C 187.152344 635.488281 224.8125 678.640625 254.6875 726.976562 C 256.875 730.53125 256.429688 735.65625 254.320312 739.167969 C 252.792969 741.710938 248.867188 744.546875 246.628906 740.929688 C 213.265625 686.90625 170.296875 639.628906 119.648438 601.324219 C 119.050781 600.871094 118.582031 600.261719 118.238281 599.554688 C 113.847656 597.675781 116.480469 586.671875 118.792969 584.367188 C 153.605469 549.917969 182.140625 509.574219 202.394531 464.953125 C 207.1875 454.386719 215.3125 463.085938 211.527344 471.449219 Z M 211.527344 471.449219 " fill-opacity="1" fill-rule="nonzero"/></g></g></g></g></svg>