<svg xmlns="http://www.w3.org/2000/svg" xmlns:xlink="http://www.w3.org/1999/xlink" width="1080" zoomAndPan="magnify" viewBox="0 0 810 809.999993" height="1080" preserveAspectRatio="xMidYMid meet" version="1.0"><defs><clipPath id="29e0c0e11b"><path d="M 136 134 L 696 134 L 696 719 L 136 719 Z M 136 134 " clip-rule="nonzero"/></clipPath><clipPath id="e77a7e1333"><path d="M 72.355469 185.210938 L 258.679688 28.054688 L 728.691406 585.308594 L 542.367188 742.460938 Z M 72.355469 185.210938 " clip-rule="nonzero"/></clipPath><clipPath id="a8b171079b"><path d="M 72.355469 185.210938 L 258.679688 28.054688 L 728.691406 585.308594 L 542.367188 742.460938 Z M 72.355469 185.210938 " clip-rule="nonzero"/></clipPath><clipPath id="185ffebb5e"><path d="M 72.355469 185.210938 L 258.679688 28.054688 L 728.691406 585.308594 L 542.367188 742.460938 Z M 72.355469 185.210938 " clip-rule="nonzero"/></clipPath></defs><g clip-path="url(#29e0c0e11b)"><g clip-path="url(#e77a7e1333)"><g clip-path="url(#a8b171079b)"><g clip-path="url(#185ffebb5e)"><path fill="#000000" d="M 605.339844 460.417969 C 622.539062 499.269531 645.433594 535.160156 673.640625 566.777344 C 580.3125 563.160156 488.054688 537.003906 406.007812 492.453125 C 320.433594 446.015625 243.308594 379.078125 190.265625 296.964844 C 161.527344 252.457031 139.273438 199.859375 148.953125 145.96875 C 150.21875 138.886719 140.839844 128.347656 138.898438 139.164062 C 130.054688 188.441406 144.640625 237.917969 168 281.183594 C 192.070312 325.78125 224.996094 366.136719 260.90625 401.703125 C 333.726562 473.832031 424.324219 527.59375 522.339844 557.425781 C 570.050781 571.953125 619.386719 580.519531 669.132812 582.996094 C 627.125 617.0625 590.835938 657.84375 561.929688 703.644531 C 559.8125 707.011719 560.191406 711.90625 562.171875 715.273438 C 563.605469 717.714844 567.324219 720.453125 569.488281 717.027344 C 601.777344 665.835938 643.15625 621.171875 691.78125 585.136719 C 692.359375 584.710938 692.808594 584.136719 693.140625 583.464844 C 697.34375 581.714844 694.933594 571.195312 692.75 568.976562 C 659.863281 535.796875 633.019531 497.050781 614.105469 454.3125 C 609.625 444.1875 601.804688 452.40625 605.339844 460.417969 Z M 605.339844 460.417969 " fill-opacity="1" fill-rule="nonzero"/></g></g></g></g></svg>