<svg xmlns="http://www.w3.org/2000/svg" xmlns:xlink="http://www.w3.org/1999/xlink" width="1080" zoomAndPan="magnify" viewBox="0 0 810 809.999993" height="1080" preserveAspectRatio="xMidYMid meet" version="1.0"><defs><clipPath id="b84f1e74ef"><path d="M 53 226 L 738 226 L 738 693 L 53 693 Z M 53 226 " clip-rule="nonzero"/></clipPath><clipPath id="8866497c9d"><path d="M 161.316406 723.652344 L 18.78125 513.113281 L 648.539062 86.769531 L 791.074219 297.3125 Z M 161.316406 723.652344 " clip-rule="nonzero"/></clipPath><clipPath id="b306c87dcc"><path d="M 791.363281 297.113281 L 648.832031 86.574219 L 19.074219 512.914062 L 161.605469 723.453125 Z M 791.363281 297.113281 " clip-rule="nonzero"/></clipPath></defs><g clip-path="url(#b84f1e74ef)"><g clip-path="url(#8866497c9d)"><g clip-path="url(#b306c87dcc)"><path fill="#e9e9e9" d="M 177.929688 422.394531 C 149.644531 456.554688 116.476562 486.117188 79.179688 509.882812 C 173.972656 532.726562 274.074219 532.625 369.125 511.144531 C 468.253906 488.769531 564.699219 443.398438 641.25 375.941406 C 682.730469 339.375 719.984375 292.84375 725.523438 235.953125 C 726.257812 228.476562 738.664062 220.546875 737.554688 231.964844 C 732.480469 283.988281 703.8125 329.5625 668.089844 366.40625 C 631.273438 404.386719 586.765625 435.589844 540.609375 461.136719 C 447.019531 512.945312 340.769531 541.253906 233.84375 543.417969 C 181.792969 544.476562 129.796875 539.082031 79.113281 527.457031 C 111.675781 573.605469 136.582031 624.875 152.65625 679.101562 C 153.828125 683.085938 152.0625 687.890625 149.117188 690.714844 C 146.984375 692.757812 142.472656 694.457031 141.269531 690.402344 C 123.328125 629.804688 94.402344 573.183594 55.753906 523.183594 C 55.296875 522.589844 55.007812 521.882812 54.863281 521.113281 C 51.132812 518.164062 56.539062 508.28125 59.359375 506.667969 C 101.796875 482.660156 139.742188 451.347656 170.851562 413.773438 C 178.21875 404.871094 183.75 415.347656 177.929688 422.394531 Z M 177.929688 422.394531 " fill-opacity="1" fill-rule="nonzero"/></g></g></g></svg>