<svg xmlns="http://www.w3.org/2000/svg" xmlns:xlink="http://www.w3.org/1999/xlink" width="1640" zoomAndPan="magnify" viewBox="0 0 1230 693.000001" height="924" preserveAspectRatio="xMidYMid meet" version="1.0"><defs><clipPath id="97ca7011ca"><path d="M 263 397 L 738 397 L 738 504.0625 L 263 504.0625 Z M 263 397 " clip-rule="nonzero"/></clipPath><clipPath id="2d099ddced"><path d="M 522 208.988281 L 668 208.988281 L 668 383 L 522 383 Z M 522 208.988281 " clip-rule="nonzero"/></clipPath><clipPath id="d6641c6ad8"><path d="M 125 208.988281 L 271 208.988281 L 271 383 L 125 383 Z M 125 208.988281 " clip-rule="nonzero"/></clipPath></defs><g clip-path="url(#97ca7011ca)"><path fill="#ff9900" d="M 732.96875 439.742188 C 676.101562 481.644531 593.691406 504.0625 522.632812 504.0625 C 423.09375 504.0625 333.535156 467.25 265.707031 405.964844 C 260.421875 401.167969 265.121094 394.609375 271.582031 398.328125 C 344.695312 440.917969 435.230469 466.46875 528.605469 466.46875 C 591.636719 466.46875 660.933594 453.449219 724.648438 426.328125 C 734.339844 422.316406 742.367188 432.691406 732.96875 439.742188 " fill-opacity="1" fill-rule="evenodd"/></g><path fill="#ff9900" d="M 756.558594 412.621094 C 749.316406 403.320312 708.5 408.21875 690.199219 410.371094 C 684.617188 411.054688 683.738281 406.160156 688.828125 402.734375 C 721.320312 379.824219 774.664062 386.484375 780.929688 394.121094 C 787.191406 401.855469 779.265625 455.308594 748.726562 480.859375 C 744.03125 484.777344 739.527344 482.71875 741.679688 477.53125 C 748.53125 460.398438 763.898438 422.019531 756.558594 412.621094 " fill-opacity="1" fill-rule="evenodd"/><path fill="#ffffff" d="M 691.46875 241.199219 L 691.46875 218.972656 C 691.46875 215.644531 694.015625 213.394531 697.046875 213.394531 L 796.589844 213.394531 C 799.820312 213.394531 802.363281 215.742188 802.363281 218.972656 L 802.363281 238.066406 C 802.363281 241.296875 799.625 245.40625 794.828125 252.066406 L 743.34375 325.6875 C 762.527344 325.195312 782.789062 328.035156 800.113281 337.828125 C 804.027344 340.078125 805.105469 343.308594 805.398438 346.441406 L 805.398438 370.132812 C 805.398438 373.363281 801.777344 377.183594 798.058594 375.222656 C 767.421875 359.167969 726.707031 357.40625 692.839844 375.421875 C 689.414062 377.28125 685.792969 373.558594 685.792969 370.328125 L 685.792969 347.8125 C 685.792969 344.191406 685.792969 338.023438 689.414062 332.539062 L 749.21875 246.777344 L 697.246094 246.777344 C 694.015625 246.777344 691.46875 244.527344 691.46875 241.199219 " fill-opacity="1" fill-rule="evenodd"/><path fill="#ffffff" d="M 328.25 380.023438 L 298.007812 380.023438 C 295.070312 379.824219 292.820312 377.671875 292.625 374.832031 L 292.625 219.367188 C 292.625 216.234375 295.265625 213.785156 298.496094 213.785156 L 326.78125 213.785156 C 329.71875 213.882812 332.066406 216.136719 332.261719 218.972656 L 332.261719 239.335938 L 332.851562 239.335938 C 340.191406 219.660156 354.089844 210.554688 372.6875 210.554688 C 391.675781 210.554688 403.515625 219.757812 412.03125 239.335938 C 419.375 219.660156 436.011719 210.554688 453.824219 210.554688 C 466.550781 210.554688 480.449219 215.839844 488.867188 227.589844 C 498.457031 240.707031 496.5 259.699219 496.5 276.34375 L 496.5 374.441406 C 496.5 377.574219 493.855469 380.023438 490.628906 380.023438 L 460.382812 380.023438 C 457.347656 379.824219 454.902344 377.378906 454.902344 374.441406 L 454.902344 292.007812 C 454.902344 285.449219 455.488281 269.101562 454.023438 262.835938 C 451.769531 252.359375 445.015625 249.421875 436.207031 249.421875 C 428.867188 249.421875 421.234375 254.316406 418.101562 262.148438 C 414.96875 269.980469 415.261719 283.097656 415.261719 291.910156 L 415.261719 374.34375 C 415.261719 377.476562 412.621094 379.921875 409.390625 379.921875 L 379.246094 379.921875 C 376.210938 379.726562 373.761719 377.28125 373.761719 374.34375 L 373.761719 291.910156 C 373.761719 274.582031 376.601562 249.03125 355.070312 249.03125 C 333.339844 249.03125 334.125 273.898438 334.125 291.910156 L 334.125 374.34375 C 334.125 377.476562 331.480469 380.023438 328.25 380.023438 " fill-opacity="1" fill-rule="evenodd"/><path fill="#ffffff" d="M 888.203125 210.457031 C 933.125 210.457031 957.496094 249.03125 957.496094 298.175781 C 957.496094 345.558594 930.582031 383.253906 888.203125 383.253906 C 844.058594 383.253906 820.078125 344.679688 820.078125 296.511719 C 819.980469 248.148438 844.351562 210.457031 888.203125 210.457031 M 888.398438 242.273438 C 866.082031 242.273438 864.710938 272.625 864.710938 291.617188 C 864.710938 310.609375 864.417969 351.238281 888.203125 351.238281 C 911.691406 351.238281 912.769531 318.539062 912.769531 298.566406 C 912.769531 285.449219 912.179688 269.785156 908.265625 257.351562 C 904.839844 246.484375 898.085938 242.273438 888.398438 242.273438 " fill-opacity="1" fill-rule="evenodd"/><path fill="#ffffff" d="M 1015.734375 380.023438 L 985.589844 380.023438 C 982.554688 379.824219 980.105469 377.378906 980.105469 374.441406 L 980.105469 218.875 C 980.402344 216.039062 982.847656 213.785156 985.980469 213.785156 L 1014.070312 213.785156 C 1016.714844 213.882812 1018.867188 215.742188 1019.453125 218.09375 L 1019.453125 241.882812 L 1020.039062 241.882812 C 1028.554688 220.636719 1040.398438 210.457031 1061.34375 210.457031 C 1074.949219 210.457031 1088.164062 215.351562 1096.679688 228.765625 C 1104.605469 241.199219 1104.605469 262.148438 1104.605469 277.128906 L 1104.605469 375.027344 C 1104.3125 377.769531 1101.765625 379.925781 1098.734375 379.925781 L 1068.390625 379.925781 C 1065.652344 379.726562 1063.300781 377.671875 1063.007812 375.027344 L 1063.007812 290.636719 C 1063.007812 273.601562 1064.964844 248.734375 1044.019531 248.734375 C 1036.679688 248.734375 1029.828125 253.632812 1026.5 261.167969 C 1022.195312 270.667969 1021.703125 280.164062 1021.703125 290.636719 L 1021.703125 374.34375 C 1021.605469 377.476562 1018.964844 380.023438 1015.734375 380.023438 " fill-opacity="1" fill-rule="evenodd"/><g clip-path="url(#2d099ddced)"><path fill="#ffffff" d="M 612.09375 305.714844 C 612.09375 317.5625 612.386719 327.351562 606.414062 337.828125 C 601.621094 346.34375 593.886719 351.628906 585.46875 351.628906 C 573.824219 351.628906 567.070312 342.722656 567.070312 329.699219 C 567.070312 303.855469 590.167969 299.15625 612.191406 299.15625 L 612.09375 305.714844 M 642.628906 379.53125 C 640.671875 381.292969 637.734375 381.492188 635.484375 380.21875 C 625.402344 371.894531 623.640625 367.980469 618.0625 360.050781 C 601.421875 376.988281 589.679688 382.078125 568.144531 382.078125 C 542.601562 382.078125 522.828125 366.316406 522.828125 334.890625 C 522.828125 310.316406 536.140625 293.574219 555.128906 285.351562 C 571.570312 278.105469 594.570312 276.832031 612.09375 274.777344 L 612.09375 270.863281 C 612.09375 263.617188 612.679688 255.101562 608.371094 248.933594 C 604.75 243.351562 597.605469 241.003906 591.34375 241.003906 C 579.792969 241.003906 569.515625 246.972656 566.972656 259.210938 C 566.480469 261.953125 564.425781 264.597656 561.6875 264.792969 L 532.324219 261.660156 C 529.875 261.070312 527.039062 259.113281 527.820312 255.296875 C 534.671875 219.757812 566.875 208.988281 595.648438 208.988281 C 610.429688 208.988281 629.613281 212.90625 641.257812 224.066406 C 656.039062 237.871094 654.570312 256.175781 654.570312 276.148438 L 654.570312 323.335938 C 654.570312 337.53125 660.441406 343.796875 666.023438 351.433594 C 667.980469 354.175781 668.371094 357.40625 665.925781 359.460938 C 659.757812 364.75 648.796875 374.34375 642.628906 379.53125 " fill-opacity="1" fill-rule="evenodd"/></g><g clip-path="url(#d6641c6ad8)"><path fill="#ffffff" d="M 215.007812 305.714844 C 215.007812 317.5625 215.300781 327.351562 209.332031 337.828125 C 204.535156 346.34375 196.902344 351.628906 188.386719 351.628906 C 176.738281 351.628906 169.984375 342.722656 169.984375 329.699219 C 169.984375 303.855469 193.082031 299.15625 215.007812 299.15625 L 215.007812 305.714844 M 245.546875 379.53125 C 243.585938 381.292969 240.652344 381.492188 238.398438 380.21875 C 228.320312 371.894531 226.558594 367.980469 220.976562 360.050781 C 204.339844 376.988281 192.59375 382.078125 171.0625 382.078125 C 145.613281 382.078125 125.746094 366.316406 125.746094 334.890625 C 125.746094 310.316406 139.054688 293.574219 158.042969 285.351562 C 174.488281 278.105469 197.488281 276.832031 215.007812 274.777344 L 215.007812 270.863281 C 215.007812 263.617188 215.59375 255.101562 211.386719 248.933594 C 207.667969 243.351562 200.621094 241.003906 194.355469 241.003906 C 182.804688 241.003906 172.53125 246.972656 169.984375 259.210938 C 169.496094 261.953125 167.441406 264.597656 164.699219 264.792969 L 135.335938 261.660156 C 132.890625 261.070312 130.148438 259.113281 130.835938 255.296875 C 137.585938 219.757812 169.789062 208.988281 198.566406 208.988281 C 213.34375 208.988281 232.527344 212.90625 244.175781 224.066406 C 258.953125 237.871094 257.484375 256.175781 257.484375 276.148438 L 257.484375 323.335938 C 257.484375 337.53125 263.359375 343.796875 268.9375 351.433594 C 270.894531 354.175781 271.285156 357.40625 268.839844 359.460938 C 262.671875 364.75 251.710938 374.34375 245.546875 379.53125 " fill-opacity="1" fill-rule="evenodd"/></g></svg>