<svg xmlns="http://www.w3.org/2000/svg" xmlns:xlink="http://www.w3.org/1999/xlink" width="1640" zoomAndPan="magnify" viewBox="0 0 1230 693.000001" height="924" preserveAspectRatio="xMidYMid meet" version="1.0"><defs><clipPath id="9313055739"><path d="M 141.640625 158.085938 L 510 158.085938 L 510 532 L 141.640625 532 Z M 141.640625 158.085938 " clip-rule="nonzero"/></clipPath><clipPath id="4f415410c1"><path d="M 558 305 L 1023.867188 305 L 1023.867188 531 L 558 531 Z M 558 305 " clip-rule="nonzero"/></clipPath></defs><g clip-path="url(#9313055739)"><path fill="#056a67" d="M 470.167969 460.351562 L 470.167969 418.714844 L 362.601562 528.035156 C 350.621094 530.527344 338.21875 531.835938 325.515625 531.835938 C 306.058594 531.835938 287.308594 528.765625 269.707031 523.070312 C 195.4375 499.0625 141.640625 428.398438 141.640625 344.960938 C 141.640625 241.75 223.960938 158.085938 325.515625 158.085938 C 415.167969 158.085938 489.832031 223.285156 506.101562 309.578125 C 508.261719 321.035156 509.394531 332.859375 509.394531 344.960938 C 509.394531 388.507812 494.738281 428.574219 470.167969 460.351562 Z M 470.167969 460.351562 " fill-opacity="1" fill-rule="nonzero"/></g><path fill="#37ed81" d="M 525.570312 309.578125 L 525.570312 514.894531 L 470.164062 514.894531 L 470.164062 418.714844 L 362.597656 528.035156 C 350.617188 530.527344 338.21875 531.835938 325.511719 531.835938 C 306.054688 531.835938 287.304688 528.765625 269.703125 523.070312 L 424.359375 365.890625 L 316.195312 365.890625 L 316.195312 309.578125 Z M 525.570312 309.578125 " fill-opacity="1" fill-rule="nonzero"/><g clip-path="url(#4f415410c1)"><path fill="#ffffff" d="M 621.542969 352.089844 L 639.679688 352.089844 L 639.679688 387.066406 C 634.808594 390.714844 629.332031 393.46875 623.507812 395.203125 C 617.523438 397.082031 611.292969 398.042969 605.027344 398.054688 C 596.675781 398.199219 588.425781 396.226562 581.03125 392.3125 C 574.101562 388.671875 568.308594 383.171875 564.289062 376.421875 C 560.328125 369.425781 558.246094 361.511719 558.246094 353.460938 C 558.246094 345.40625 560.328125 337.492188 564.289062 330.496094 C 568.3125 323.703125 574.15625 318.183594 581.148438 314.570312 C 588.621094 310.664062 596.945312 308.691406 605.367188 308.828125 C 612.363281 308.742188 619.308594 310.035156 625.808594 312.628906 C 631.757812 315.054688 637.054688 318.859375 641.265625 323.730469 L 628.53125 335.554688 C 625.710938 332.476562 622.277344 330.035156 618.453125 328.382812 C 614.636719 326.734375 610.507812 325.910156 606.351562 325.972656 C 601.289062 325.867188 596.28125 327.058594 591.804688 329.433594 C 587.601562 331.597656 584.109375 334.9375 581.75 339.050781 C 579.410156 343.476562 578.191406 348.410156 578.191406 353.421875 C 578.191406 358.433594 579.410156 363.367188 581.75 367.792969 C 584.0625 371.914062 587.480469 375.300781 591.609375 377.5625 C 596.027344 379.976562 600.988281 381.191406 606.007812 381.097656 C 611.382812 381.132812 616.679688 379.828125 621.425781 377.296875 Z M 684.15625 331.789062 C 688.417969 330.078125 692.976562 329.238281 697.566406 329.320312 L 697.566406 347.035156 C 695.453125 347.035156 694.019531 346.808594 693.300781 346.808594 C 690.960938 346.667969 688.621094 347.003906 686.410156 347.792969 C 684.203125 348.582031 682.179688 349.8125 680.449219 351.40625 C 678.777344 353.28125 677.496094 355.476562 676.691406 357.859375 C 675.886719 360.246094 675.570312 362.769531 675.765625 365.28125 L 675.765625 396.570312 L 656.871094 396.570312 L 656.871094 330.308594 L 675.125 330.308594 L 675.125 339.050781 C 677.40625 335.835938 680.53125 333.320312 684.15625 331.789062 Z M 721.039062 393.1875 C 715.691406 390.429688 711.21875 386.230469 708.109375 381.058594 C 705.066406 375.691406 703.464844 369.621094 703.464844 363.4375 C 703.464844 357.257812 705.066406 351.1875 708.109375 345.820312 C 711.203125 340.605469 715.679688 336.367188 721.039062 333.578125 C 726.828125 330.699219 733.203125 329.203125 739.667969 329.203125 C 746.128906 329.203125 752.5 330.699219 758.296875 333.578125 C 763.609375 336.347656 768.054688 340.546875 771.140625 345.703125 C 774.210938 351.0625 775.828125 357.140625 775.828125 363.324219 C 775.828125 369.511719 774.210938 375.585938 771.140625 380.945312 C 768.054688 386.105469 763.609375 390.304688 758.296875 393.074219 C 752.5 395.949219 746.128906 397.445312 739.667969 397.445312 C 733.203125 397.445312 726.828125 395.949219 721.039062 393.074219 Z M 751.792969 376.800781 C 754.820312 373.035156 756.46875 368.339844 756.46875 363.496094 C 756.46875 358.652344 754.820312 353.957031 751.792969 350.191406 C 750.269531 348.5 748.398438 347.160156 746.3125 346.261719 C 744.222656 345.363281 741.96875 344.929688 739.703125 344.980469 C 737.445312 344.90625 735.199219 345.308594 733.105469 346.167969 C 731.019531 347.027344 729.132812 348.320312 727.570312 349.960938 C 724.519531 353.71875 722.855469 358.417969 722.855469 363.269531 C 722.855469 368.117188 724.519531 372.820312 727.570312 376.574219 C 729.136719 378.210938 731.023438 379.5 733.109375 380.359375 C 735.203125 381.214844 737.449219 381.625 739.703125 381.554688 C 741.9375 381.65625 744.167969 381.289062 746.25 380.46875 C 748.332031 379.648438 750.21875 378.402344 751.792969 376.800781 Z M 892.515625 330.308594 L 868.671875 396.570312 L 850.308594 396.570312 L 835.492188 355.4375 L 820.152344 396.570312 L 801.789062 396.570312 L 778.054688 330.308594 L 796.042969 330.308594 L 811.613281 375.128906 L 827.746094 330.308594 L 843.917969 330.308594 L 859.605469 375.128906 L 875.621094 330.308594 Z M 945.796875 393.378906 C 943.710938 394.847656 941.359375 395.90625 938.882812 396.496094 C 936.054688 397.222656 933.148438 397.578125 930.226562 397.558594 C 923.621094 397.980469 917.109375 395.8125 912.050781 391.515625 C 909.804688 389.183594 908.070312 386.398438 906.960938 383.34375 C 905.855469 380.292969 905.402344 377.039062 905.625 373.796875 L 905.625 346.578125 L 895.386719 346.578125 L 895.386719 331.789062 L 905.554688 331.789062 L 905.554688 315.632812 L 924.671875 315.632812 L 924.671875 331.789062 L 941.070312 331.789062 L 941.070312 346.578125 L 924.671875 346.578125 L 924.671875 373.53125 C 924.507812 375.882812 925.269531 378.203125 926.789062 379.996094 C 927.585938 380.785156 928.539062 381.398438 929.589844 381.789062 C 930.636719 382.183594 931.753906 382.347656 932.875 382.277344 C 935.597656 382.332031 938.257812 381.460938 940.429688 379.804688 Z M 1016.308594 336.695312 C 1021.34375 341.636719 1023.867188 348.949219 1023.867188 358.628906 L 1023.867188 396.648438 L 1004.972656 396.648438 L 1004.972656 361.671875 C 1005.28125 357.453125 1004.058594 353.265625 1001.53125 349.886719 C 1000.25 348.5625 998.699219 347.539062 996.980469 346.882812 C 995.265625 346.222656 993.425781 345.953125 991.59375 346.085938 C 989.496094 346.003906 987.40625 346.367188 985.453125 347.144531 C 983.5 347.925781 981.730469 349.105469 980.257812 350.609375 C 978.648438 352.421875 977.40625 354.535156 976.609375 356.832031 C 975.808594 359.128906 975.46875 361.5625 975.613281 363.992188 L 975.613281 396.761719 L 956.71875 396.761719 L 956.71875 305.519531 L 975.613281 305.519531 L 975.613281 337.378906 C 978.21875 334.789062 981.351562 332.792969 984.792969 331.523438 C 988.558594 330.15625 992.539062 329.476562 996.546875 329.507812 C 1000.148438 329.332031 1003.75 329.878906 1007.140625 331.109375 C 1010.535156 332.34375 1013.652344 334.242188 1016.308594 336.695312 Z M 572.644531 527.464844 C 567.421875 525.886719 562.597656 523.214844 558.472656 519.632812 L 563.007812 510.011719 C 566.6875 513.210938 570.949219 515.664062 575.550781 517.234375 C 580.609375 519.066406 585.9375 520.003906 591.308594 520.011719 C 596.871094 520.351562 602.40625 519.027344 607.21875 516.210938 C 608.835938 515.175781 610.164062 513.75 611.082031 512.0625 C 611.996094 510.371094 612.476562 508.476562 612.46875 506.554688 C 612.523438 505.214844 612.292969 503.878906 611.800781 502.632812 C 611.304688 501.390625 610.554688 500.265625 609.597656 499.332031 C 607.574219 497.402344 605.148438 495.945312 602.496094 495.074219 C 599.699219 494.085938 595.695312 492.980469 590.554688 491.765625 C 585.257812 490.550781 580.042969 488.988281 574.945312 487.089844 C 571.03125 485.542969 567.542969 483.066406 564.785156 479.867188 C 561.792969 476.136719 560.28125 471.421875 560.550781 466.636719 C 560.542969 462.203125 561.859375 457.871094 564.332031 454.203125 C 567.054688 450.25 570.863281 447.171875 575.289062 445.347656 C 581.070312 442.941406 587.289062 441.804688 593.539062 442 C 598.578125 441.992188 603.597656 442.65625 608.46875 443.976562 C 612.972656 445.097656 617.25 447.015625 621.089844 449.640625 L 617.042969 459.488281 C 613.460938 457.214844 609.582031 455.449219 605.519531 454.242188 C 601.628906 453.085938 597.59375 452.484375 593.539062 452.457031 C 588.070312 452.066406 582.617188 453.394531 577.933594 456.257812 C 576.316406 457.332031 574.992188 458.792969 574.082031 460.511719 C 573.171875 462.234375 572.699219 464.15625 572.71875 466.105469 C 572.671875 467.449219 572.910156 468.789062 573.417969 470.035156 C 573.925781 471.28125 574.695312 472.402344 575.664062 473.328125 C 577.777344 475.25 580.261719 476.710938 582.960938 477.621094 C 586.824219 478.933594 590.761719 480.027344 594.746094 480.890625 C 599.988281 482.128906 605.140625 483.714844 610.167969 485.644531 C 614.042969 487.191406 617.5 489.640625 620.253906 492.792969 C 623.222656 496.414062 624.734375 501.027344 624.488281 505.71875 C 624.476562 510.132812 623.164062 514.449219 620.707031 518.109375 C 617.878906 522.121094 613.9375 525.203125 609.375 526.96875 C 603.535156 529.300781 597.289062 530.414062 591.007812 530.238281 C 584.777344 530.304688 578.578125 529.367188 572.644531 527.464844 Z M 663.332031 525.902344 C 658.265625 523.132812 654.042969 519.015625 651.128906 514.003906 C 648.28125 508.757812 646.789062 502.875 646.789062 496.898438 C 646.789062 490.917969 648.28125 485.035156 651.128906 479.789062 C 654.046875 474.800781 658.269531 470.710938 663.332031 467.964844 C 668.78125 465.085938 674.863281 463.636719 681.019531 463.746094 C 686.46875 463.644531 691.863281 464.871094 696.738281 467.320312 C 701.269531 469.601562 705.011719 473.207031 707.46875 477.660156 L 698.515625 483.4375 C 696.648438 480.472656 694.042969 478.046875 690.957031 476.40625 C 687.851562 474.832031 684.417969 474.039062 680.941406 474.085938 C 676.988281 474.042969 673.085938 475.011719 669.605469 476.902344 C 666.246094 478.773438 663.480469 481.570312 661.632812 484.960938 C 659.667969 488.648438 658.675781 492.789062 658.761719 496.972656 C 658.664062 501.210938 659.65625 505.398438 661.632812 509.140625 C 663.480469 512.53125 666.246094 515.324219 669.605469 517.199219 C 673.082031 519.105469 676.988281 520.074219 680.941406 520.011719 C 684.417969 520.0625 687.851562 519.265625 690.957031 517.691406 C 694.042969 516.050781 696.648438 513.628906 698.515625 510.660156 L 707.621094 516.058594 C 705.140625 520.519531 701.40625 524.140625 696.890625 526.472656 C 692.039062 529.019531 686.636719 530.324219 681.167969 530.277344 C 674.984375 530.328125 668.890625 528.769531 663.484375 525.75 Z M 788.335938 470.78125 C 790.910156 473.625 792.882812 476.964844 794.136719 480.597656 C 795.390625 484.230469 795.894531 488.082031 795.625 491.917969 L 795.625 529.476562 L 783.875 529.476562 L 783.875 493.246094 C 784.257812 488.082031 782.632812 482.972656 779.339844 478.992188 C 777.632812 477.3125 775.59375 476.015625 773.355469 475.183594 C 771.113281 474.351562 768.726562 474.003906 766.339844 474.164062 C 763.570312 474 760.800781 474.417969 758.199219 475.386719 C 755.597656 476.355469 753.226562 477.851562 751.230469 479.789062 C 749.292969 481.957031 747.804688 484.496094 746.859375 487.25 C 745.910156 490.003906 745.519531 492.921875 745.710938 495.832031 L 745.710938 529.476562 L 733.960938 529.476562 L 733.960938 438.238281 L 745.710938 438.238281 L 745.710938 473.59375 C 748.296875 470.257812 751.691406 467.652344 755.574219 466.027344 C 759.78125 464.242188 764.3125 463.363281 768.875 463.441406 C 772.457031 463.265625 776.035156 463.808594 779.402344 465.042969 C 782.769531 466.277344 785.855469 468.175781 788.488281 470.628906 Z M 840.445312 525.902344 C 835.398438 523.136719 831.214844 519.019531 828.351562 514.003906 C 825.527344 508.75 824.050781 502.871094 824.050781 496.898438 C 824.050781 490.921875 825.527344 485.042969 828.351562 479.789062 C 831.21875 474.796875 835.402344 470.703125 840.445312 467.964844 C 845.808594 465.179688 851.753906 463.726562 857.789062 463.726562 C 863.824219 463.726562 869.769531 465.179688 875.132812 467.964844 C 880.136719 470.726562 884.292969 474.816406 887.148438 479.789062 C 889.976562 485.042969 891.453125 490.921875 891.453125 496.898438 C 891.453125 502.871094 889.976562 508.75 887.148438 514.003906 C 884.296875 519 880.140625 523.113281 875.132812 525.902344 C 869.78125 528.726562 863.832031 530.199219 857.789062 530.199219 C 851.746094 530.199219 845.792969 528.726562 840.445312 525.902344 Z M 869.011719 516.96875 C 872.316406 515.046875 875.015625 512.230469 876.796875 508.835938 C 878.632812 505.101562 879.59375 500.988281 879.59375 496.820312 C 879.59375 492.652344 878.632812 488.542969 876.796875 484.808594 C 875.011719 481.4375 872.308594 478.640625 869.011719 476.75 C 865.5625 474.902344 861.714844 473.933594 857.808594 473.933594 C 853.902344 473.933594 850.054688 474.902344 846.601562 476.75 C 843.3125 478.660156 840.601562 481.449219 838.78125 484.808594 C 836.894531 488.527344 835.910156 492.644531 835.910156 496.820312 C 835.910156 500.996094 836.894531 505.113281 838.78125 508.835938 C 840.597656 512.214844 843.308594 515.027344 846.601562 516.96875 C 850.039062 518.867188 853.890625 519.859375 857.808594 519.859375 C 861.722656 519.859375 865.578125 518.867188 869.011719 516.96875 Z M 930.414062 525.902344 C 925.382812 523.136719 921.207031 519.019531 918.363281 514.003906 C 915.539062 508.75 914.0625 502.871094 914.0625 496.898438 C 914.0625 490.921875 915.539062 485.042969 918.363281 479.789062 C 921.210938 474.800781 925.386719 470.707031 930.414062 467.964844 C 935.789062 465.195312 941.742188 463.75 947.78125 463.75 C 953.820312 463.75 959.769531 465.195312 965.144531 467.964844 C 970.136719 470.730469 974.28125 474.820312 977.125 479.789062 C 979.945312 485.042969 981.425781 490.921875 981.425781 496.898438 C 981.425781 502.871094 979.945312 508.75 977.125 514.003906 C 974.285156 518.996094 970.140625 523.113281 965.144531 525.902344 C 959.785156 528.726562 953.828125 530.199219 947.78125 530.199219 C 941.734375 530.199219 935.773438 528.726562 930.414062 525.902344 Z M 959.023438 516.96875 C 962.3125 515.046875 964.996094 512.226562 966.769531 508.835938 C 968.640625 505.109375 969.617188 500.996094 969.617188 496.820312 C 969.617188 492.648438 968.640625 488.53125 966.769531 484.808594 C 964.996094 481.4375 962.308594 478.644531 959.023438 476.75 C 955.550781 474.832031 951.644531 473.859375 947.683594 473.933594 C 943.726562 473.851562 939.816406 474.820312 936.347656 476.75 C 933.035156 478.648438 930.316406 481.441406 928.492188 484.808594 C 926.601562 488.527344 925.621094 492.644531 925.621094 496.820312 C 925.621094 500.996094 926.601562 505.113281 928.492188 508.835938 C 930.5 512.25 933.433594 515.019531 936.953125 516.816406 C 940.402344 518.804688 944.316406 519.804688 948.292969 519.707031 C 952.105469 519.710938 955.855469 518.714844 959.171875 516.816406 Z M 1010 438.085938 L 1021.75 438.085938 L 1021.75 529.324219 L 1010 529.324219 Z M 1010 438.085938 " fill-opacity="1" fill-rule="nonzero"/></g></svg>