<svg xmlns="http://www.w3.org/2000/svg" xmlns:xlink="http://www.w3.org/1999/xlink" width="1640" zoomAndPan="magnify" viewBox="0 0 1230 693.000001" height="924" preserveAspectRatio="xMidYMid meet" version="1.0"><defs><clipPath id="6ca0caa2cb"><path d="M 72 247.449219 L 269 247.449219 L 269 443.664062 L 72 443.664062 Z M 72 247.449219 " clip-rule="nonzero"/></clipPath></defs><g clip-path="url(#6ca0caa2cb)"><path fill="#ff4c46" d="M 266.054688 274.460938 L 202.703125 280.132812 C 191.722656 273.738281 180.863281 271.207031 169.398438 271.207031 C 166.382812 271.207031 163.246094 271.449219 160.109375 272.050781 L 93.859375 247.570312 C 91.203125 246.605469 89.273438 250.101562 91.566406 251.789062 L 132.234375 283.265625 C 123.664062 288.574219 115.578125 295.566406 108.460938 303.527344 C 96.394531 317.398438 81.1875 355.746094 73.707031 375.648438 C 70.570312 384.210938 72.136719 393.738281 77.929688 400.730469 C 91.445312 417.132812 119.441406 443.664062 173.261719 443.664062 C 222.613281 443.664062 247.59375 421.476562 259.300781 405.3125 C 265.816406 396.269531 267.746094 384.8125 264.488281 374.199219 C 259.179688 356.230469 247.957031 325.113281 229.734375 303.769531 C 229.132812 303.046875 228.40625 302.320312 227.804688 301.597656 L 267.261719 278.203125 C 269.195312 277.238281 268.226562 274.34375 266.054688 274.460938 Z M 266.054688 274.460938 " fill-opacity="1" fill-rule="nonzero"/></g><path fill="#ffffff" d="M 199.929688 390 C 195.222656 391.6875 184.605469 394.21875 172.777344 388.070312 C 172.175781 387.707031 171.570312 388.550781 172.054688 389.035156 C 175.792969 393.011719 182.429688 400.128906 186.535156 403.503906 C 187.378906 404.230469 188.707031 404.109375 189.429688 403.265625 L 200.652344 390.84375 C 201.136719 390.601562 200.652344 389.878906 199.929688 390 Z M 199.929688 390 " fill-opacity="1" fill-rule="nonzero"/><path fill="#ffffff" d="M 243.730469 338.5 C 237.699219 325.476562 228.769531 313.296875 215.132812 311.847656 C 212.71875 311.609375 210.1875 312.089844 208.132812 313.417969 L 193.292969 322.21875 C 189.550781 324.390625 184.964844 324.148438 181.585938 321.496094 L 168.675781 311.488281 C 164.332031 308.109375 159.382812 305.699219 154.074219 304.492188 C 131.992188 299.304688 117.027344 310.882812 105.683594 332.59375 C 94.824219 353.335938 100.859375 383.246094 127.527344 390.238281 C 155.644531 397.714844 174.226562 366.480469 181.707031 356.109375 C 183.15625 354.058594 186.050781 354.058594 187.5 356.109375 C 199.085938 371.789062 214.53125 388.550781 231.183594 385.175781 C 253.144531 380.710938 250.488281 353.214844 243.730469 338.5 Z M 162.28125 355.023438 C 156.847656 358.640625 149.972656 357.796875 145.867188 351.648438 C 141.765625 345.496094 143.574219 338.742188 149.003906 335.125 C 154.4375 331.507812 161.3125 332.351562 165.417969 338.5 C 169.519531 344.652344 167.710938 351.40625 162.28125 355.023438 Z M 219.839844 356.109375 C 214.410156 359.726562 207.53125 358.882812 203.429688 352.734375 C 199.324219 346.582031 201.136719 339.828125 206.566406 336.210938 C 211.996094 332.59375 218.875 333.4375 222.976562 339.585938 C 227.078125 345.738281 225.269531 352.492188 219.839844 356.109375 Z M 219.839844 356.109375 " fill-opacity="1" fill-rule="nonzero"/><path fill="#ffffff" d="M 187.257812 364.070312 C 186.171875 362.863281 184.121094 362.863281 183.035156 364.191406 L 171.210938 378.179688 C 170.605469 378.78125 170.726562 379.867188 171.449219 380.351562 C 174.226562 382.28125 180.863281 386.621094 187.378906 386.621094 C 193.414062 386.621094 198.84375 384.328125 201.496094 383.003906 C 202.34375 382.519531 202.582031 381.433594 201.980469 380.710938 Z M 187.257812 364.070312 " fill-opacity="1" fill-rule="nonzero"/><path fill="#ff4c46" d="M 321.445312 403.746094 L 321.445312 310.160156 L 342.199219 310.160156 L 342.199219 350.804688 L 411.101562 350.804688 L 411.101562 310.160156 L 431.859375 310.160156 L 431.859375 403.746094 L 411.101562 403.746094 L 411.101562 368.289062 L 342.199219 368.289062 L 342.199219 403.746094 Z M 321.445312 403.746094 " fill-opacity="1" fill-rule="nonzero"/><path fill="#ff4c46" d="M 490.746094 406.039062 C 476.988281 406.039062 465.886719 402.417969 457.5625 395.304688 C 449.113281 388.1875 445.011719 378.78125 445.011719 367.085938 C 445.011719 355.386719 449.234375 345.980469 457.5625 338.863281 C 466.007812 331.75 476.988281 328.128906 490.746094 328.128906 C 504.621094 328.128906 515.722656 331.75 524.171875 338.863281 C 532.617188 345.980469 536.722656 355.386719 536.722656 367.085938 C 536.722656 378.78125 532.496094 388.1875 524.171875 395.304688 C 515.722656 402.539062 504.5 406.039062 490.746094 406.039062 Z M 490.746094 390 C 498.710938 390 505.226562 387.949219 510.050781 383.726562 C 514.878906 379.503906 517.414062 374.078125 517.414062 367.203125 C 517.414062 360.332031 515 354.664062 510.050781 350.5625 C 505.226562 346.339844 498.710938 344.289062 490.746094 344.289062 C 482.78125 344.289062 476.507812 346.460938 471.558594 350.683594 C 466.730469 354.902344 464.199219 360.449219 464.199219 367.324219 C 464.199219 374.199219 466.609375 379.625 471.558594 383.847656 C 476.386719 387.949219 482.78125 390 490.746094 390 Z M 490.746094 390 " fill-opacity="1" fill-rule="nonzero"/><path fill="#ff4c46" d="M 591.746094 406.039062 C 577.992188 406.039062 566.886719 402.417969 558.5625 395.304688 C 550.117188 388.1875 546.011719 378.78125 546.011719 367.085938 C 546.011719 355.386719 550.234375 345.980469 558.5625 338.863281 C 567.007812 331.75 577.992188 328.128906 591.746094 328.128906 C 605.625 328.128906 616.726562 331.75 625.171875 338.863281 C 633.621094 345.980469 637.722656 355.386719 637.722656 367.085938 C 637.722656 378.78125 633.5 388.1875 625.171875 395.304688 C 616.726562 402.539062 605.625 406.039062 591.746094 406.039062 Z M 591.746094 390 C 599.710938 390 606.226562 387.949219 611.054688 383.726562 C 615.882812 379.503906 618.414062 374.078125 618.414062 367.203125 C 618.414062 360.332031 616 354.664062 611.054688 350.5625 C 606.226562 346.339844 599.710938 344.289062 591.746094 344.289062 C 583.78125 344.289062 577.507812 346.460938 572.558594 350.683594 C 567.734375 354.902344 565.199219 360.449219 565.199219 367.324219 C 565.199219 374.199219 567.613281 379.625 572.558594 383.847656 C 577.507812 387.949219 583.902344 390 591.746094 390 Z M 591.746094 390 " fill-opacity="1" fill-rule="nonzero"/><path fill="#ff4c46" d="M 676.09375 405.195312 C 666.925781 405.195312 661.734375 400.972656 659.082031 397.113281 C 656.304688 393.253906 654.132812 388.308594 654.132812 377.457031 L 654.132812 345.617188 L 643.636719 345.617188 L 643.636719 330.664062 L 657.148438 330.664062 L 657.148438 310.160156 L 675.007812 310.160156 L 675.007812 330.664062 L 696.128906 330.664062 L 696.128906 345.617188 L 675.007812 345.617188 L 675.007812 372.992188 C 674.890625 381.195312 676.214844 384.089844 678.148438 386.140625 C 681.648438 389.636719 692.265625 387.222656 696.128906 384.8125 L 696.128906 400.609375 C 691.542969 403.746094 683.578125 405.195312 676.09375 405.195312 Z M 676.09375 405.195312 " fill-opacity="1" fill-rule="nonzero"/><path fill="#ff4c46" d="M 748.980469 406.039062 C 735.949219 406.039062 722.914062 404.109375 709.761719 400.371094 L 709.761719 383.726562 C 720.742188 387.949219 732.691406 390 745.601562 390 C 754.894531 390 761.53125 389.394531 765.511719 388.1875 C 769.496094 386.984375 771.546875 384.933594 771.546875 381.917969 C 771.546875 379.144531 769.375 377.09375 764.910156 376.007812 C 760.445312 374.921875 755.015625 374.199219 748.617188 373.835938 C 742.222656 373.597656 735.828125 372.992188 729.433594 372.148438 C 723.035156 371.304688 717.605469 369.253906 713.140625 366.121094 C 708.675781 362.863281 706.503906 358.402344 706.503906 352.492188 C 706.503906 344.53125 710.367188 338.5 718.089844 334.402344 C 725.8125 330.300781 736.308594 328.25 749.585938 328.25 C 760.082031 328.25 772.269531 329.578125 786.148438 332.351562 L 786.148438 348.390625 C 774.199219 345.859375 762.617188 344.53125 751.757812 344.53125 C 735.222656 344.53125 726.898438 347.0625 726.898438 352.128906 C 726.898438 354.664062 729.191406 356.472656 733.65625 357.4375 C 738.121094 358.402344 743.550781 359.125 749.945312 359.605469 C 756.339844 359.96875 762.617188 360.691406 769.011719 361.535156 C 775.40625 362.5 780.835938 364.550781 785.300781 367.929688 C 789.765625 371.304688 792.058594 375.886719 792.058594 381.796875 C 792.058594 390 788.199219 396.027344 780.597656 400.007812 C 772.996094 404.109375 762.496094 406.039062 748.980469 406.039062 Z M 748.980469 406.039062 " fill-opacity="1" fill-rule="nonzero"/><path fill="#ff4c46" d="M 891.371094 330.664062 L 891.371094 403.867188 L 868.566406 403.867188 L 871.460938 373.71875 L 870.253906 373.71875 C 866.875 395.425781 854.808594 406.160156 834.296875 406.160156 C 823.796875 405.917969 816.074219 402.539062 811.125 395.785156 C 806.300781 389.152344 803.765625 377.9375 803.765625 362.378906 L 803.765625 330.664062 L 824.519531 330.664062 L 824.519531 359.96875 C 824.519531 370.941406 826.089844 378.78125 829.226562 383.484375 C 832.363281 388.1875 837.433594 390.480469 844.550781 390.480469 C 852.515625 390.480469 858.792969 386.863281 863.375 379.625 C 868.082031 372.390625 870.375 362.863281 870.375 350.804688 L 870.375 330.664062 Z M 891.371094 330.664062 " fill-opacity="1" fill-rule="nonzero"/><path fill="#ff4c46" d="M 919.609375 323.546875 C 915.628906 323.546875 912.488281 322.582031 910.195312 320.53125 C 907.902344 318.480469 906.816406 315.585938 906.816406 311.726562 C 906.816406 307.871094 907.902344 304.855469 910.195312 302.925781 C 912.488281 300.996094 915.507812 300.03125 919.609375 300.03125 C 923.710938 300.03125 926.847656 300.996094 929.140625 302.925781 C 931.433594 304.855469 932.640625 307.75 932.640625 311.726562 C 932.640625 319.566406 928.296875 323.546875 919.609375 323.546875 Z M 909.472656 403.746094 L 909.472656 330.664062 L 930.226562 330.664062 L 930.226562 403.867188 L 909.472656 403.867188 Z M 909.472656 403.746094 " fill-opacity="1" fill-rule="nonzero"/><path fill="#ff4c46" d="M 1047.398438 406.039062 C 1034.125 406.039062 1023.507812 402.417969 1015.421875 395.304688 C 1007.335938 388.1875 1003.355469 378.78125 1003.355469 367.085938 C 1003.355469 355.386719 1007.335938 345.980469 1015.421875 338.863281 C 1023.507812 331.75 1034.125 328.128906 1047.398438 328.128906 C 1060.433594 328.128906 1071.050781 331.144531 1079.136719 337.296875 C 1087.222656 343.445312 1091.324219 351.40625 1091.566406 361.414062 L 1091.566406 373.355469 L 1023.386719 373.355469 C 1024.59375 379.265625 1027.609375 383.605469 1032.679688 386.257812 C 1037.746094 388.914062 1045.105469 390.238281 1054.882812 390.238281 C 1067.792969 390.238281 1073.585938 388.1875 1079.859375 385.898438 C 1080.824219 385.535156 1087.703125 382.519531 1088.308594 382.28125 L 1088.308594 398.921875 C 1080.945312 401.695312 1074.550781 403.625 1069.121094 404.589844 C 1063.570312 405.554688 1056.328125 406.039062 1047.398438 406.039062 Z M 1022.78125 363.34375 L 1071.65625 362.140625 C 1071.414062 355.746094 1069.242188 351.042969 1065.378906 348.269531 C 1061.519531 345.496094 1055.484375 344.050781 1047.398438 344.050781 C 1039.554688 344.050781 1033.765625 345.496094 1029.78125 348.511719 C 1025.800781 351.648438 1023.507812 356.589844 1022.78125 363.34375 Z M 1022.78125 363.34375 " fill-opacity="1" fill-rule="nonzero"/><path fill="#ff4c46" d="M 1128.492188 349.234375 C 1129.9375 348.027344 1130.542969 346.460938 1130.542969 344.410156 C 1130.542969 342.359375 1129.816406 340.792969 1128.492188 339.585938 C 1127.042969 338.382812 1125.113281 337.777344 1122.699219 337.777344 L 1114.855469 337.777344 L 1114.855469 357.195312 L 1118.113281 357.195312 L 1118.113281 350.921875 L 1122.578125 350.921875 C 1122.820312 350.921875 1123.058594 350.921875 1123.421875 350.921875 L 1127.523438 357.195312 L 1130.902344 357.195312 L 1126.4375 350.320312 C 1127.164062 350.078125 1127.886719 349.71875 1128.492188 349.234375 Z M 1122.457031 348.269531 L 1118.113281 348.269531 L 1118.113281 340.550781 L 1122.457031 340.550781 C 1124.027344 340.550781 1125.230469 340.914062 1126.078125 341.515625 C 1126.921875 342.242188 1127.40625 343.085938 1127.40625 344.410156 C 1127.40625 345.617188 1126.921875 346.582031 1126.078125 347.304688 C 1125.230469 347.910156 1124.027344 348.269531 1122.457031 348.269531 Z M 1122.457031 348.269531 " fill-opacity="1" fill-rule="nonzero"/><path fill="#ff4c46" d="M 1137.660156 340.671875 C 1136.816406 338.621094 1135.609375 336.8125 1134.042969 335.246094 C 1132.472656 333.675781 1130.664062 332.472656 1128.609375 331.628906 C 1126.558594 330.785156 1124.265625 330.300781 1121.855469 330.300781 C 1119.441406 330.300781 1117.148438 330.785156 1115.097656 331.628906 C 1113.042969 332.472656 1111.113281 333.675781 1109.664062 335.246094 C 1108.097656 336.8125 1106.890625 338.621094 1106.046875 340.671875 C 1105.199219 342.722656 1104.71875 345.015625 1104.71875 347.425781 C 1104.71875 349.839844 1105.199219 352.007812 1106.046875 354.179688 C 1106.890625 356.230469 1108.097656 358.039062 1109.664062 359.605469 C 1111.234375 361.175781 1113.042969 362.378906 1115.097656 363.226562 C 1117.148438 364.070312 1119.441406 364.550781 1121.855469 364.550781 C 1124.265625 364.550781 1126.558594 364.070312 1128.609375 363.226562 C 1130.664062 362.378906 1132.472656 361.175781 1134.042969 359.605469 C 1135.609375 358.039062 1136.816406 356.230469 1137.660156 354.058594 C 1138.507812 352.007812 1138.988281 349.71875 1138.988281 347.304688 C 1138.988281 345.015625 1138.625 342.722656 1137.660156 340.671875 Z M 1135.609375 353.335938 C 1134.886719 355.144531 1133.800781 356.710938 1132.472656 358.160156 C 1131.144531 359.484375 1129.578125 360.570312 1127.644531 361.414062 C 1125.835938 362.140625 1123.90625 362.621094 1121.734375 362.621094 C 1119.5625 362.621094 1117.628906 362.261719 1115.820312 361.535156 C 1114.011719 360.8125 1112.441406 359.726562 1111.113281 358.402344 C 1109.785156 357.074219 1108.699219 355.507812 1107.976562 353.578125 C 1107.253906 351.769531 1106.890625 349.839844 1106.890625 347.667969 C 1106.890625 345.496094 1107.253906 343.566406 1107.976562 341.757812 C 1108.699219 339.949219 1109.785156 338.382812 1111.113281 336.933594 C 1112.441406 335.605469 1114.011719 334.523438 1115.820312 333.675781 C 1117.628906 332.953125 1119.679688 332.59375 1121.734375 332.59375 C 1123.90625 332.59375 1125.835938 332.953125 1127.644531 333.675781 C 1129.457031 334.402344 1131.023438 335.488281 1132.351562 336.8125 C 1133.679688 338.140625 1134.765625 339.707031 1135.488281 341.515625 C 1136.214844 343.324219 1136.574219 345.253906 1136.574219 347.425781 C 1136.695312 349.597656 1136.335938 351.527344 1135.609375 353.335938 Z M 1135.609375 353.335938 " fill-opacity="1" fill-rule="nonzero"/><path fill="#ff4c46" d="M 976.6875 405.195312 C 967.515625 405.195312 962.328125 400.972656 959.671875 397.113281 C 956.898438 393.253906 954.722656 388.308594 954.722656 377.457031 L 954.722656 345.617188 L 944.226562 345.617188 L 944.226562 330.664062 L 957.742188 330.664062 L 957.742188 310.160156 L 975.601562 310.160156 L 975.601562 330.664062 L 996.71875 330.664062 L 996.71875 345.617188 L 975.601562 345.617188 L 975.601562 372.992188 C 975.480469 381.195312 976.808594 384.089844 978.738281 386.140625 C 982.238281 389.636719 992.855469 387.222656 996.71875 384.8125 L 996.71875 400.609375 C 992.132812 403.746094 984.046875 405.195312 976.6875 405.195312 Z M 976.6875 405.195312 " fill-opacity="1" fill-rule="nonzero"/><path fill="#ffffff" d="M 320.617188 404.511719 L 320.617188 310.570312 L 341.386719 310.570312 L 341.386719 351.316406 L 410.332031 351.316406 L 410.332031 310.570312 L 431.101562 310.570312 L 431.101562 404.390625 L 410.332031 404.390625 L 410.332031 368.847656 L 341.386719 368.847656 L 341.386719 404.390625 L 320.617188 404.390625 Z M 320.617188 404.511719 " fill-opacity="1" fill-rule="nonzero"/><path fill="#ffffff" d="M 489.902344 406.808594 C 476.140625 406.808594 465.03125 403.183594 456.699219 396.050781 C 448.246094 388.917969 444.140625 379.484375 444.140625 367.757812 C 444.140625 356.03125 448.367188 346.597656 456.699219 339.464844 C 465.152344 332.332031 476.140625 328.707031 489.902344 328.707031 C 503.789062 328.707031 514.898438 332.332031 523.351562 339.464844 C 531.804688 346.597656 535.910156 356.03125 535.910156 367.757812 C 535.910156 379.484375 531.683594 388.917969 523.351562 396.050781 C 514.898438 403.304688 503.789062 406.808594 489.902344 406.808594 Z M 489.902344 390.730469 C 497.875 390.730469 504.394531 388.675781 509.222656 384.441406 C 514.054688 380.210938 516.589844 374.769531 516.589844 367.878906 C 516.589844 360.988281 514.175781 355.304688 509.222656 351.195312 C 504.394531 346.960938 497.875 344.90625 489.902344 344.90625 C 481.933594 344.90625 475.65625 347.082031 470.707031 351.316406 C 465.875 355.546875 463.339844 361.109375 463.339844 368 C 463.339844 374.890625 465.753906 380.332031 470.707031 384.5625 C 475.65625 388.554688 482.054688 390.730469 489.902344 390.730469 Z M 489.902344 390.730469 " fill-opacity="1" fill-rule="nonzero"/><path fill="#ffffff" d="M 591.089844 406.808594 C 577.324219 406.808594 566.214844 403.183594 557.882812 396.050781 C 549.433594 388.917969 545.328125 379.484375 545.328125 367.757812 C 545.328125 356.03125 549.550781 346.597656 557.882812 339.464844 C 566.335938 332.332031 577.324219 328.707031 591.089844 328.707031 C 604.976562 328.707031 616.082031 332.332031 624.535156 339.464844 C 632.988281 346.597656 637.09375 356.03125 637.09375 367.757812 C 637.09375 379.484375 632.867188 388.917969 624.535156 396.050781 C 616.082031 403.304688 604.976562 406.808594 591.089844 406.808594 Z M 591.089844 390.730469 C 599.058594 390.730469 605.578125 388.675781 610.410156 384.441406 C 615.238281 380.210938 617.773438 374.769531 617.773438 367.878906 C 617.773438 360.988281 615.359375 355.304688 610.410156 351.195312 C 605.578125 346.960938 599.058594 344.90625 591.089844 344.90625 C 583.121094 344.90625 576.839844 347.082031 571.890625 351.316406 C 567.0625 355.546875 564.523438 361.109375 564.523438 368 C 564.523438 374.890625 566.941406 380.332031 571.890625 384.5625 C 576.71875 388.554688 583.121094 390.730469 591.089844 390.730469 Z M 591.089844 390.730469 " fill-opacity="1" fill-rule="nonzero"/><path fill="#ffffff" d="M 675.492188 405.964844 C 666.3125 405.964844 661.121094 401.730469 658.464844 397.863281 C 655.6875 393.996094 653.515625 389.039062 653.515625 378.15625 L 653.515625 346.359375 L 643.011719 346.359375 L 643.011719 331.125 L 656.535156 331.125 L 656.535156 310.570312 L 674.402344 310.570312 L 674.402344 331.125 L 695.535156 331.125 L 695.535156 346.238281 L 674.402344 346.238281 L 674.402344 373.683594 C 674.285156 381.902344 675.613281 384.804688 677.542969 386.859375 C 681.046875 390.367188 691.671875 387.949219 695.535156 385.53125 L 695.535156 401.371094 C 690.945312 404.511719 682.855469 405.964844 675.492188 405.964844 Z M 675.492188 405.964844 " fill-opacity="1" fill-rule="nonzero"/><path fill="#ffffff" d="M 748.421875 406.808594 C 735.382812 406.808594 722.339844 404.875 709.179688 401.128906 L 709.179688 384.441406 C 720.167969 388.675781 732.121094 390.730469 745.039062 390.730469 C 754.339844 390.730469 760.980469 390.125 764.964844 388.917969 C 768.949219 387.707031 771 385.652344 771 382.628906 C 771 379.847656 768.828125 377.792969 764.359375 376.703125 C 759.890625 375.617188 754.457031 374.890625 748.058594 374.527344 C 741.660156 374.285156 735.261719 373.683594 728.859375 372.835938 C 722.460938 371.988281 717.027344 369.933594 712.558594 366.789062 C 708.09375 363.527344 705.917969 359.050781 705.917969 353.128906 C 705.917969 345.148438 709.78125 339.101562 717.511719 334.992188 C 725.238281 330.882812 735.742188 328.828125 749.023438 328.828125 C 759.53125 328.828125 771.726562 330.15625 785.609375 332.9375 L 785.609375 349.015625 C 773.65625 346.476562 762.066406 345.148438 751.199219 345.148438 C 734.65625 345.148438 726.324219 347.6875 726.324219 352.765625 C 726.324219 355.304688 728.617188 357.117188 733.085938 358.085938 C 737.554688 359.050781 742.988281 359.777344 749.386719 360.261719 C 755.785156 360.625 762.066406 361.351562 768.464844 362.195312 C 774.863281 363.164062 780.296875 365.21875 784.765625 368.605469 C 789.234375 371.988281 791.527344 376.582031 791.527344 382.507812 C 791.527344 390.730469 787.664062 396.773438 780.058594 400.765625 C 772.449219 404.875 761.824219 406.808594 748.421875 406.808594 Z M 748.421875 406.808594 " fill-opacity="1" fill-rule="nonzero"/><path fill="#ffffff" d="M 890.902344 331.125 L 890.902344 404.511719 L 868.082031 404.511719 L 870.980469 374.285156 L 869.769531 374.285156 C 866.390625 396.050781 854.316406 406.808594 833.789062 406.808594 C 823.285156 406.570312 815.554688 403.183594 810.605469 396.414062 C 805.777344 389.761719 803.238281 378.519531 803.238281 362.921875 L 803.238281 331.125 L 824.007812 331.125 L 824.007812 360.503906 C 824.007812 371.507812 825.578125 379.363281 828.71875 384.082031 C 831.855469 388.796875 836.929688 391.09375 844.050781 391.09375 C 852.023438 391.09375 858.300781 387.464844 862.890625 380.210938 C 867.597656 372.957031 869.890625 363.40625 869.890625 351.316406 L 869.890625 331.125 Z M 890.902344 331.125 " fill-opacity="1" fill-rule="nonzero"/><path fill="#ffffff" d="M 919.15625 324.109375 C 915.171875 324.109375 912.03125 323.144531 909.738281 321.089844 C 907.445312 319.03125 906.355469 316.132812 906.355469 312.261719 C 906.355469 308.394531 907.445312 305.371094 909.738281 303.4375 C 912.03125 301.5 915.050781 300.535156 919.15625 300.535156 C 923.261719 300.535156 926.402344 301.5 928.695312 303.4375 C 930.988281 305.371094 932.195312 308.273438 932.195312 312.261719 C 932.195312 320.121094 927.851562 324.109375 919.15625 324.109375 Z M 909.015625 404.511719 L 909.015625 331.125 L 929.78125 331.125 L 929.78125 404.511719 Z M 909.015625 404.511719 " fill-opacity="1" fill-rule="nonzero"/><path fill="#ffffff" d="M 1047.027344 406.808594 C 1033.746094 406.808594 1023.117188 403.183594 1015.027344 396.050781 C 1006.9375 388.917969 1002.953125 379.484375 1002.953125 367.757812 C 1002.953125 356.03125 1006.9375 346.597656 1015.027344 339.464844 C 1023.117188 332.332031 1033.746094 328.707031 1047.027344 328.707031 C 1060.066406 328.707031 1070.691406 331.726562 1078.78125 337.894531 C 1086.871094 344.058594 1090.976562 352.039062 1091.21875 362.074219 L 1091.21875 374.046875 L 1023 374.046875 C 1024.207031 379.96875 1027.222656 384.320312 1032.296875 386.980469 C 1037.367188 389.640625 1044.730469 390.972656 1054.511719 390.972656 C 1067.433594 390.972656 1073.230469 388.917969 1079.507812 386.617188 C 1080.472656 386.257812 1087.355469 383.234375 1087.960938 382.992188 L 1087.960938 399.675781 C 1080.59375 402.457031 1074.195312 404.390625 1068.761719 405.359375 C 1063.207031 406.328125 1055.960938 406.808594 1047.027344 406.808594 Z M 1022.394531 364.011719 L 1071.296875 362.800781 C 1071.054688 356.394531 1068.882812 351.675781 1065.019531 348.898438 C 1061.152344 346.117188 1055.117188 344.664062 1047.027344 344.664062 C 1039.179688 344.664062 1033.382812 346.117188 1029.398438 349.136719 C 1025.414062 352.28125 1023.117188 357.117188 1022.394531 364.011719 Z M 1022.394531 364.011719 " fill-opacity="1" fill-rule="nonzero"/><path fill="#ffffff" d="M 1128.167969 349.742188 C 1129.617188 348.535156 1130.21875 346.960938 1130.21875 344.90625 C 1130.21875 342.851562 1129.496094 341.28125 1128.167969 340.070312 C 1126.71875 338.863281 1124.785156 338.257812 1122.371094 338.257812 L 1114.523438 338.257812 L 1114.523438 357.722656 L 1117.785156 357.722656 L 1117.785156 351.4375 L 1122.25 351.4375 C 1122.492188 351.4375 1122.734375 351.4375 1123.097656 351.4375 L 1127.203125 357.722656 L 1130.582031 357.722656 L 1126.117188 350.832031 C 1126.839844 350.589844 1127.5625 350.226562 1128.167969 349.742188 Z M 1122.128906 348.777344 L 1117.785156 348.777344 L 1117.785156 341.039062 L 1122.128906 341.039062 C 1123.699219 341.039062 1124.90625 341.402344 1125.753906 342.003906 C 1126.597656 342.730469 1127.082031 343.578125 1127.082031 344.90625 C 1127.082031 346.117188 1126.597656 347.082031 1125.753906 347.808594 C 1124.90625 348.414062 1123.699219 348.777344 1122.128906 348.777344 Z M 1122.128906 348.777344 " fill-opacity="1" fill-rule="nonzero"/><path fill="#ffffff" d="M 1137.34375 341.160156 C 1136.5 339.101562 1135.292969 337.289062 1133.722656 335.71875 C 1132.152344 334.144531 1130.339844 332.9375 1128.289062 332.089844 C 1126.234375 331.246094 1123.941406 330.761719 1121.527344 330.761719 C 1119.113281 330.761719 1116.816406 331.246094 1114.765625 332.089844 C 1112.710938 332.9375 1110.78125 334.144531 1109.332031 335.71875 C 1107.761719 337.289062 1106.554688 339.101562 1105.710938 341.160156 C 1104.863281 343.214844 1104.382812 345.511719 1104.382812 347.929688 C 1104.382812 350.347656 1104.863281 352.523438 1105.710938 354.699219 C 1106.554688 356.753906 1107.761719 358.570312 1109.332031 360.140625 C 1110.902344 361.710938 1112.710938 362.921875 1114.765625 363.769531 C 1116.816406 364.613281 1119.113281 365.097656 1121.527344 365.097656 C 1123.941406 365.097656 1126.234375 364.613281 1128.289062 363.769531 C 1130.339844 362.921875 1132.152344 361.710938 1133.722656 360.140625 C 1135.292969 358.570312 1136.5 356.753906 1137.34375 354.578125 C 1138.191406 352.523438 1138.671875 350.226562 1138.671875 347.808594 C 1138.671875 345.511719 1138.3125 343.214844 1137.34375 341.160156 Z M 1135.292969 353.855469 C 1134.566406 355.667969 1133.480469 357.238281 1132.152344 358.691406 C 1130.824219 360.019531 1129.253906 361.109375 1127.324219 361.953125 C 1125.511719 362.679688 1123.578125 363.164062 1121.40625 363.164062 C 1119.234375 363.164062 1117.300781 362.800781 1115.488281 362.074219 C 1113.679688 361.351562 1112.109375 360.261719 1110.78125 358.933594 C 1109.453125 357.601562 1108.367188 356.03125 1107.640625 354.09375 C 1106.917969 352.28125 1106.554688 350.347656 1106.554688 348.171875 C 1106.554688 345.996094 1106.917969 344.058594 1107.640625 342.246094 C 1108.367188 340.433594 1109.453125 338.863281 1110.78125 337.410156 C 1112.109375 336.082031 1113.679688 334.992188 1115.488281 334.144531 C 1117.300781 333.421875 1119.351562 333.058594 1121.40625 333.058594 C 1123.578125 333.058594 1125.511719 333.421875 1127.324219 334.144531 C 1129.132812 334.871094 1130.703125 335.960938 1132.03125 337.289062 C 1133.359375 338.621094 1134.445312 340.191406 1135.171875 342.003906 C 1135.894531 343.820312 1136.257812 345.753906 1136.257812 347.929688 C 1136.378906 350.105469 1136.015625 352.039062 1135.292969 353.855469 Z M 1135.292969 353.855469 " fill-opacity="1" fill-rule="nonzero"/><path fill="#ffffff" d="M 976.148438 405.964844 C 966.972656 405.964844 961.78125 401.730469 959.125 397.863281 C 956.347656 393.996094 954.171875 389.039062 954.171875 378.15625 L 954.171875 346.359375 L 943.667969 346.359375 L 943.667969 331.125 L 957.191406 331.125 L 957.191406 310.570312 L 975.0625 310.570312 L 975.0625 331.125 L 996.191406 331.125 L 996.191406 346.238281 L 975.0625 346.238281 L 975.0625 373.683594 C 974.941406 381.902344 976.269531 384.804688 978.203125 386.859375 C 981.703125 390.367188 992.328125 387.949219 996.191406 385.53125 L 996.191406 401.371094 C 991.726562 404.511719 983.636719 405.964844 976.148438 405.964844 Z M 976.148438 405.964844 " fill-opacity="1" fill-rule="nonzero"/></svg>