<svg xmlns="http://www.w3.org/2000/svg" xmlns:xlink="http://www.w3.org/1999/xlink" width="1640" zoomAndPan="magnify" viewBox="0 0 1230 693.000001" height="924" preserveAspectRatio="xMidYMid meet" version="1.0"><defs><clipPath id="1d33b68e59"><path d="M 109.300781 245 L 1120.339844 245 L 1120.339844 485 L 109.300781 485 Z M 109.300781 245 " clip-rule="nonzero"/></clipPath><clipPath id="751030fc68"><path d="M 758 198.109375 L 1029 198.109375 L 1029 481 L 758 481 Z M 758 198.109375 " clip-rule="nonzero"/></clipPath></defs><g clip-path="url(#1d33b68e59)"><path fill="#ffffff" d="M 218.796875 245.574219 L 218.796875 326.445312 L 144.535156 326.445312 L 144.535156 245.574219 L 109.300781 245.574219 L 109.300781 438.628906 L 144.542969 438.628906 L 144.542969 360.378906 L 218.789062 360.378906 L 218.789062 438.628906 L 254.042969 438.628906 L 254.042969 245.574219 Z M 366.847656 376.230469 C 366.847656 377.1875 366.800781 378.140625 366.707031 379.089844 C 366.613281 380.042969 366.476562 380.984375 366.289062 381.921875 C 366.101562 382.859375 365.871094 383.785156 365.59375 384.699219 C 365.316406 385.613281 364.996094 386.515625 364.628906 387.398438 C 364.265625 388.28125 363.855469 389.140625 363.40625 389.984375 C 362.957031 390.828125 362.464844 391.644531 361.933594 392.441406 C 361.402344 393.234375 360.835938 394.003906 360.230469 394.742188 C 359.625 395.480469 358.984375 396.1875 358.308594 396.863281 C 357.632812 397.539062 356.925781 398.179688 356.1875 398.785156 C 355.449219 399.390625 354.683594 399.960938 353.886719 400.492188 C 353.09375 401.023438 352.277344 401.511719 351.433594 401.960938 C 350.589844 402.414062 349.730469 402.820312 348.847656 403.1875 C 347.964844 403.550781 347.066406 403.875 346.152344 404.152344 C 345.238281 404.429688 344.3125 404.660156 343.375 404.847656 C 342.4375 405.035156 341.496094 405.171875 340.542969 405.265625 C 339.59375 405.359375 338.640625 405.40625 337.6875 405.40625 C 336.730469 405.40625 335.777344 405.359375 334.828125 405.265625 C 333.878906 405.171875 332.933594 405.035156 331.996094 404.847656 C 331.058594 404.660156 330.136719 404.429688 329.222656 404.152344 C 328.308594 403.875 327.410156 403.550781 326.527344 403.1875 C 325.644531 402.820312 324.78125 402.414062 323.9375 401.960938 C 323.097656 401.511719 322.277344 401.023438 321.484375 400.492188 C 320.691406 399.960938 319.925781 399.390625 319.1875 398.785156 C 318.449219 398.179688 317.742188 397.539062 317.066406 396.863281 C 316.390625 396.1875 315.75 395.480469 315.144531 394.742188 C 314.539062 394.003906 313.96875 393.234375 313.4375 392.441406 C 312.90625 391.644531 312.417969 390.828125 311.96875 389.984375 C 311.515625 389.140625 311.109375 388.28125 310.742188 387.398438 C 310.378906 386.515625 310.054688 385.613281 309.777344 384.699219 C 309.503906 383.785156 309.269531 382.859375 309.082031 381.921875 C 308.898438 380.984375 308.757812 380.042969 308.664062 379.089844 C 308.570312 378.140625 308.523438 377.1875 308.523438 376.230469 L 308.523438 293.535156 L 275.09375 293.535156 L 275.09375 376.230469 C 275.09375 378.28125 275.191406 380.324219 275.394531 382.363281 C 275.59375 384.402344 275.894531 386.425781 276.292969 388.4375 C 276.695312 390.445312 277.191406 392.429688 277.785156 394.390625 C 278.378906 396.351562 279.070312 398.28125 279.851562 400.171875 C 280.636719 402.066406 281.511719 403.914062 282.476562 405.722656 C 283.441406 407.53125 284.492188 409.285156 285.632812 410.988281 C 286.769531 412.691406 287.988281 414.335938 289.285156 415.917969 C 290.585938 417.503906 291.960938 419.019531 293.40625 420.46875 C 294.855469 421.917969 296.371094 423.292969 297.953125 424.59375 C 299.539062 425.890625 301.179688 427.109375 302.882812 428.25 C 304.585938 429.386719 306.339844 430.441406 308.148438 431.40625 C 309.953125 432.371094 311.800781 433.246094 313.695312 434.03125 C 315.585938 434.816406 317.511719 435.503906 319.472656 436.097656 C 321.433594 436.695312 323.417969 437.191406 325.425781 437.589844 C 327.433594 437.992188 329.457031 438.289062 331.496094 438.492188 C 333.535156 438.691406 335.578125 438.792969 337.625 438.792969 C 339.671875 438.792969 341.714844 438.691406 343.753906 438.492188 C 345.792969 438.289062 347.816406 437.992188 349.824219 437.589844 C 351.832031 437.191406 353.816406 436.695312 355.777344 436.097656 C 357.734375 435.503906 359.664062 434.816406 361.554688 434.03125 C 363.445312 433.246094 365.296875 432.371094 367.101562 431.40625 C 368.90625 430.441406 370.664062 429.386719 372.363281 428.25 C 374.066406 427.109375 375.710938 425.890625 377.292969 424.59375 C 378.878906 423.292969 380.394531 421.917969 381.839844 420.46875 C 383.289062 419.019531 384.664062 417.503906 385.960938 415.921875 C 387.261719 414.335938 388.480469 412.691406 389.617188 410.988281 C 390.753906 409.285156 391.808594 407.53125 392.773438 405.722656 C 393.738281 403.914062 394.613281 402.066406 395.394531 400.171875 C 396.179688 398.28125 396.867188 396.351562 397.464844 394.390625 C 398.058594 392.429688 398.554688 390.445312 398.953125 388.4375 C 399.355469 386.425781 399.65625 384.402344 399.855469 382.363281 C 400.054688 380.324219 400.15625 378.28125 400.15625 376.230469 L 400.15625 293.535156 L 366.847656 293.535156 Z M 614.5625 302.054688 C 614.5625 285.097656 625.769531 279.726562 638.046875 279.726562 C 647.945312 279.726562 661.015625 287.265625 669.570312 296.40625 L 691.460938 270.585938 C 680.53125 255.792969 658.363281 245.574219 640.210938 245.574219 C 603.9375 245.574219 577.707031 266.824219 577.707031 302.054688 C 577.707031 367.421875 657.5625 346.675781 657.5625 383.265625 C 657.5625 394.542969 646.613281 404.507812 634.078125 404.507812 C 614.304688 404.507812 607.898438 394.839844 598.816406 384.609375 L 574.511719 409.886719 C 590.058594 428.972656 609.230469 438.667969 632.191406 438.667969 C 666.652344 438.667969 694.371094 417.160156 694.371094 383.53125 C 694.371094 310.96875 614.507812 333.519531 614.507812 302.054688 M 1108.582031 407.789062 C 1088.828125 407.789062 1083.210938 399.238281 1083.210938 386.144531 L 1083.210938 328.175781 L 1113.921875 328.175781 L 1113.921875 298.800781 L 1083.210938 298.800781 L 1083.210938 260.050781 L 1049.3125 275.269531 L 1049.3125 393.351562 C 1049.3125 423.554688 1070.144531 438.773438 1098.699219 438.773438 C 1103.183594 438.851562 1107.664062 438.488281 1112.070312 437.703125 L 1120.339844 407.246094 C 1116.613281 407.503906 1112.328125 407.761719 1108.582031 407.761719 M 494.105469 294.5 C 477.546875 294.5 465.988281 299.308594 454.808594 310.273438 L 454.808594 246.726562 L 421.332031 246.726562 L 421.332031 364.511719 C 421.332031 408.601562 453.1875 438.8125 488.996094 438.8125 C 528.710938 438.8125 563.648438 408.066406 563.648438 366.667969 C 563.648438 325.789062 531.496094 294.527344 494.105469 294.527344 M 493.898438 405.097656 C 492.652344 405.097656 491.410156 405.035156 490.171875 404.914062 C 488.933594 404.792969 487.703125 404.609375 486.484375 404.367188 C 485.265625 404.125 484.058594 403.824219 482.867188 403.460938 C 481.675781 403.097656 480.507812 402.679688 479.355469 402.203125 C 478.207031 401.726562 477.082031 401.195312 475.984375 400.609375 C 474.890625 400.023438 473.824219 399.382812 472.789062 398.691406 C 471.753906 398 470.753906 397.257812 469.792969 396.46875 C 468.832031 395.679688 467.910156 394.84375 467.03125 393.964844 C 466.152344 393.082031 465.316406 392.164062 464.527344 391.199219 C 463.738281 390.238281 462.996094 389.238281 462.304688 388.203125 C 461.613281 387.167969 460.976562 386.101562 460.386719 385.003906 C 459.800781 383.90625 459.269531 382.78125 458.792969 381.632812 C 458.316406 380.480469 457.898438 379.308594 457.539062 378.117188 C 457.175781 376.929688 456.875 375.722656 456.632812 374.5 C 456.390625 373.28125 456.207031 372.050781 456.085938 370.808594 C 455.964844 369.570312 455.902344 368.328125 455.902344 367.085938 C 455.902344 365.839844 455.964844 364.597656 456.085938 363.359375 C 456.207031 362.121094 456.390625 360.890625 456.632812 359.667969 C 456.875 358.449219 457.175781 357.242188 457.539062 356.050781 C 457.898438 354.859375 458.316406 353.6875 458.792969 352.539062 C 459.269531 351.386719 459.800781 350.261719 460.386719 349.164062 C 460.976562 348.066406 461.613281 347 462.304688 345.964844 C 462.996094 344.929688 463.738281 343.929688 464.527344 342.96875 C 465.316406 342.007812 466.152344 341.085938 467.03125 340.203125 C 467.910156 339.324219 468.832031 338.488281 469.792969 337.699219 C 470.753906 336.910156 471.753906 336.167969 472.789062 335.476562 C 473.824219 334.785156 474.890625 334.148438 475.984375 333.558594 C 477.082031 332.972656 478.207031 332.441406 479.355469 331.964844 C 480.507812 331.488281 481.675781 331.070312 482.867188 330.707031 C 484.058594 330.347656 485.265625 330.042969 486.484375 329.800781 C 487.703125 329.558594 488.933594 329.375 490.171875 329.253906 C 491.410156 329.132812 492.652344 329.070312 493.898438 329.070312 C 495.140625 329.070312 496.382812 329.132812 497.621094 329.253906 C 498.859375 329.375 500.089844 329.558594 501.308594 329.800781 C 502.53125 330.042969 503.734375 330.347656 504.925781 330.707031 C 506.117188 331.070312 507.289062 331.488281 508.4375 331.964844 C 509.585938 332.441406 510.710938 332.972656 511.808594 333.558594 C 512.90625 334.148438 513.972656 334.785156 515.007812 335.476562 C 516.039062 336.167969 517.039062 336.910156 518 337.699219 C 518.960938 338.488281 519.882812 339.324219 520.761719 340.203125 C 521.644531 341.085938 522.476562 342.007812 523.265625 342.96875 C 524.058594 343.929688 524.796875 344.929688 525.488281 345.964844 C 526.179688 347 526.820312 348.066406 527.40625 349.164062 C 527.992188 350.261719 528.523438 351.386719 529 352.539062 C 529.476562 353.6875 529.894531 354.859375 530.257812 356.050781 C 530.617188 357.242188 530.917969 358.449219 531.160156 359.667969 C 531.40625 360.890625 531.585938 362.121094 531.710938 363.359375 C 531.832031 364.597656 531.890625 365.839844 531.890625 367.085938 C 531.890625 368.328125 531.832031 369.570312 531.710938 370.808594 C 531.585938 372.050781 531.40625 373.28125 531.160156 374.5 C 530.917969 375.722656 530.617188 376.929688 530.257812 378.117188 C 529.894531 379.308594 529.476562 380.480469 529 381.632812 C 528.523438 382.78125 527.992188 383.90625 527.40625 385.003906 C 526.820312 386.101562 526.179688 387.167969 525.488281 388.203125 C 524.796875 389.238281 524.058594 390.238281 523.269531 391.199219 C 522.476562 392.164062 521.644531 393.082031 520.761719 393.964844 C 519.882812 394.84375 518.960938 395.679688 518 396.46875 C 517.039062 397.257812 516.039062 398 515.007812 398.691406 C 513.972656 399.382812 512.90625 400.023438 511.808594 400.609375 C 510.710938 401.195312 509.585938 401.726562 508.4375 402.203125 C 507.289062 402.679688 506.117188 403.097656 504.925781 403.460938 C 503.734375 403.824219 502.53125 404.125 501.308594 404.367188 C 500.089844 404.609375 498.859375 404.792969 497.621094 404.914062 C 496.382812 405.035156 495.140625 405.097656 493.898438 405.097656 M 857.699219 364.914062 C 857.699219 323.441406 822.839844 292.769531 783.046875 292.769531 C 747.25 292.769531 715.382812 322.972656 715.382812 367.070312 L 715.382812 484.921875 L 748.859375 484.921875 L 748.859375 421.292969 C 760.019531 432.238281 771.597656 437.066406 788.136719 437.066406 C 825.527344 437.066406 857.691406 405.804688 857.691406 364.914062 M 825.996094 364.492188 C 825.996094 365.738281 825.933594 366.980469 825.8125 368.21875 C 825.691406 369.457031 825.507812 370.6875 825.265625 371.910156 C 825.023438 373.128906 824.71875 374.335938 824.359375 375.527344 C 823.996094 376.71875 823.578125 377.890625 823.101562 379.039062 C 822.625 380.191406 822.09375 381.316406 821.507812 382.414062 C 820.921875 383.511719 820.285156 384.578125 819.59375 385.613281 C 818.902344 386.648438 818.160156 387.648438 817.371094 388.609375 C 816.582031 389.570312 815.746094 390.492188 814.867188 391.371094 C 813.988281 392.253906 813.066406 393.089844 812.105469 393.878906 C 811.140625 394.667969 810.144531 395.410156 809.109375 396.101562 C 808.074219 396.792969 807.007812 397.429688 805.910156 398.019531 C 804.8125 398.605469 803.691406 399.136719 802.539062 399.613281 C 801.390625 400.089844 800.21875 400.507812 799.03125 400.871094 C 797.839844 401.230469 796.632812 401.535156 795.414062 401.777344 C 794.191406 402.019531 792.960938 402.203125 791.722656 402.324219 C 790.484375 402.445312 789.246094 402.507812 788 402.507812 C 786.757812 402.507812 785.515625 402.445312 784.277344 402.324219 C 783.039062 402.203125 781.808594 402.019531 780.585938 401.777344 C 779.367188 401.535156 778.160156 401.230469 776.972656 400.871094 C 775.78125 400.507812 774.609375 400.089844 773.460938 399.613281 C 772.3125 399.136719 771.1875 398.605469 770.089844 398.019531 C 768.992188 397.429688 767.925781 396.792969 766.890625 396.101562 C 765.855469 395.410156 764.859375 394.667969 763.894531 393.878906 C 762.933594 393.089844 762.011719 392.253906 761.132812 391.371094 C 760.253906 390.492188 759.417969 389.570312 758.628906 388.609375 C 757.839844 387.648438 757.101562 386.648438 756.410156 385.613281 C 755.71875 384.578125 755.078125 383.511719 754.492188 382.414062 C 753.90625 381.316406 753.375 380.191406 752.898438 379.039062 C 752.421875 377.890625 752.003906 376.71875 751.640625 375.527344 C 751.28125 374.335938 750.976562 373.128906 750.734375 371.910156 C 750.492188 370.6875 750.308594 369.457031 750.1875 368.21875 C 750.066406 366.980469 750.003906 365.738281 750.003906 364.492188 C 750.003906 363.25 750.066406 362.007812 750.1875 360.769531 C 750.308594 359.527344 750.492188 358.296875 750.734375 357.078125 C 750.976562 355.855469 751.28125 354.648438 751.640625 353.457031 C 752.003906 352.265625 752.421875 351.097656 752.898438 349.945312 C 753.375 348.796875 753.90625 347.671875 754.492188 346.574219 C 755.078125 345.476562 755.71875 344.410156 756.410156 343.375 C 757.101562 342.339844 757.839844 341.339844 758.628906 340.378906 C 759.417969 339.414062 760.253906 338.496094 761.132812 337.613281 C 762.011719 336.734375 762.933594 335.898438 763.894531 335.109375 C 764.859375 334.320312 765.855469 333.578125 766.890625 332.886719 C 767.925781 332.195312 768.992188 331.554688 770.089844 330.96875 C 771.1875 330.382812 772.308594 329.851562 773.460938 329.375 C 774.609375 328.898438 775.78125 328.480469 776.972656 328.117188 C 778.160156 327.753906 779.367188 327.453125 780.585938 327.210938 C 781.808594 326.96875 783.039062 326.785156 784.277344 326.664062 C 785.515625 326.542969 786.757812 326.480469 788 326.480469 C 789.246094 326.480469 790.484375 326.542969 791.722656 326.664062 C 792.960938 326.785156 794.191406 326.96875 795.414062 327.210938 C 796.632812 327.453125 797.839844 327.753906 799.03125 328.117188 C 800.21875 328.480469 801.390625 328.898438 802.539062 329.375 C 803.691406 329.851562 804.8125 330.382812 805.910156 330.96875 C 807.007812 331.554688 808.074219 332.195312 809.109375 332.886719 C 810.144531 333.578125 811.140625 334.320312 812.105469 335.109375 C 813.066406 335.898438 813.988281 336.734375 814.867188 337.613281 C 815.746094 338.496094 816.582031 339.414062 817.371094 340.378906 C 818.160156 341.339844 818.902344 342.339844 819.59375 343.375 C 820.285156 344.410156 820.921875 345.476562 821.507812 346.574219 C 822.09375 347.671875 822.625 348.796875 823.101562 349.945312 C 823.578125 351.097656 823.996094 352.265625 824.359375 353.457031 C 824.71875 354.648438 825.023438 355.855469 825.265625 357.078125 C 825.507812 358.296875 825.691406 359.527344 825.8125 360.769531 C 825.933594 362.007812 825.996094 363.25 825.996094 364.492188 " fill-opacity="1" fill-rule="nonzero"/></g><g clip-path="url(#751030fc68)"><path fill="#ff7a59" d="M 965.882812 291.148438 L 965.882812 257.492188 C 966.988281 256.972656 968.050781 256.382812 969.074219 255.714844 C 970.09375 255.046875 971.066406 254.3125 971.984375 253.507812 C 972.902344 252.703125 973.757812 251.835938 974.554688 250.910156 C 975.351562 249.984375 976.078125 249.007812 976.734375 247.976562 C 977.394531 246.949219 977.976562 245.878906 978.480469 244.769531 C 978.988281 243.65625 979.414062 242.515625 979.761719 241.34375 C 980.105469 240.171875 980.367188 238.984375 980.542969 237.773438 C 980.722656 236.566406 980.8125 235.351562 980.816406 234.132812 L 980.816406 233.359375 C 980.816406 219.042969 969.21875 207.441406 954.914062 207.441406 L 954.140625 207.441406 C 953.292969 207.441406 952.445312 207.480469 951.601562 207.566406 C 950.757812 207.648438 949.917969 207.773438 949.085938 207.9375 C 948.253906 208.105469 947.433594 208.308594 946.621094 208.554688 C 945.808594 208.800781 945.011719 209.089844 944.226562 209.414062 C 943.441406 209.738281 942.675781 210.101562 941.929688 210.5 C 941.179688 210.902344 940.453125 211.335938 939.746094 211.808594 C 939.042969 212.28125 938.363281 212.785156 937.707031 213.324219 C 937.050781 213.863281 936.421875 214.429688 935.820312 215.03125 C 935.222656 215.632812 934.652344 216.261719 934.113281 216.914062 C 933.578125 217.570312 933.070312 218.253906 932.601562 218.957031 C 932.128906 219.664062 931.691406 220.390625 931.292969 221.140625 C 930.894531 221.890625 930.53125 222.65625 930.207031 223.441406 C 929.882812 224.222656 929.597656 225.023438 929.351562 225.835938 C 929.105469 226.648438 928.898438 227.46875 928.730469 228.300781 C 928.566406 229.132812 928.441406 229.972656 928.359375 230.816406 C 928.277344 231.664062 928.234375 232.507812 928.234375 233.359375 L 928.234375 234.132812 C 928.238281 235.351562 928.332031 236.566406 928.507812 237.773438 C 928.6875 238.984375 928.949219 240.171875 929.292969 241.34375 C 929.636719 242.515625 930.0625 243.65625 930.570312 244.769531 C 931.078125 245.878906 931.660156 246.949219 932.316406 247.976562 C 932.976562 249.007812 933.703125 249.984375 934.496094 250.910156 C 935.292969 251.835938 936.152344 252.703125 937.070312 253.507812 C 937.988281 254.3125 938.957031 255.046875 939.980469 255.714844 C 941 256.382812 942.066406 256.972656 943.171875 257.492188 L 943.171875 291.148438 C 936.78125 292.128906 930.632812 293.917969 924.714844 296.523438 C 918.800781 299.128906 913.324219 302.460938 908.289062 306.511719 L 816.027344 234.617188 C 816.6875 232.242188 817.03125 229.796875 817.066406 227.347656 C 817.070312 226.390625 817.023438 225.433594 816.933594 224.484375 C 816.839844 223.53125 816.703125 222.585938 816.519531 221.648438 C 816.332031 220.710938 816.101562 219.78125 815.828125 218.867188 C 815.550781 217.949219 815.230469 217.050781 814.867188 216.164062 C 814.503906 215.28125 814.097656 214.417969 813.648438 213.574219 C 813.199219 212.726562 812.707031 211.90625 812.179688 211.113281 C 811.648438 210.316406 811.082031 209.546875 810.476562 208.804688 C 809.871094 208.066406 809.230469 207.355469 808.558594 206.679688 C 807.882812 206 807.175781 205.359375 806.4375 204.75 C 805.699219 204.140625 804.933594 203.570312 804.140625 203.039062 C 803.347656 202.507812 802.527344 202.015625 801.6875 201.5625 C 800.84375 201.109375 799.980469 200.699219 799.097656 200.332031 C 798.214844 199.964844 797.316406 199.640625 796.402344 199.359375 C 795.488281 199.082031 794.5625 198.847656 793.625 198.660156 C 792.6875 198.472656 791.742188 198.328125 790.792969 198.234375 C 789.839844 198.136719 788.886719 198.089844 787.933594 198.089844 C 786.976562 198.085938 786.023438 198.132812 785.070312 198.222656 C 784.117188 198.316406 783.175781 198.453125 782.234375 198.640625 C 781.296875 198.824219 780.371094 199.054688 779.457031 199.332031 C 778.539062 199.609375 777.640625 199.929688 776.757812 200.292969 C 775.875 200.65625 775.007812 201.0625 774.164062 201.511719 C 773.320312 201.960938 772.5 202.453125 771.707031 202.984375 C 770.910156 203.511719 770.140625 204.082031 769.402344 204.6875 C 768.664062 205.292969 767.953125 205.933594 767.277344 206.605469 C 766.597656 207.28125 765.957031 207.988281 765.347656 208.726562 C 764.742188 209.464844 764.171875 210.234375 763.640625 211.027344 C 763.105469 211.820312 762.613281 212.640625 762.164062 213.484375 C 761.710938 214.324219 761.300781 215.1875 760.933594 216.070312 C 760.566406 216.953125 760.242188 217.855469 759.964844 218.769531 C 759.683594 219.683594 759.453125 220.609375 759.265625 221.546875 C 759.074219 222.484375 758.933594 223.429688 758.839844 224.382812 C 758.746094 225.332031 758.695312 226.289062 758.695312 227.246094 C 758.691406 228.199219 758.738281 229.15625 758.832031 230.105469 C 758.921875 231.058594 759.0625 232.003906 759.246094 232.941406 C 759.433594 233.882812 759.664062 234.808594 759.9375 235.722656 C 760.214844 236.640625 760.535156 237.539062 760.898438 238.425781 C 761.265625 239.308594 761.671875 240.171875 762.121094 241.015625 C 762.570312 241.859375 763.058594 242.679688 763.589844 243.476562 C 764.121094 244.273438 764.6875 245.042969 765.292969 245.78125 C 765.898438 246.523438 766.539062 247.230469 767.214844 247.90625 C 767.890625 248.585938 768.59375 249.226562 769.332031 249.835938 C 770.070312 250.441406 770.835938 251.011719 771.632812 251.546875 C 772.425781 252.078125 773.246094 252.570312 774.085938 253.023438 C 774.929688 253.476562 775.792969 253.882812 776.675781 254.25 C 777.558594 254.617188 778.457031 254.941406 779.371094 255.222656 C 780.285156 255.5 781.210938 255.734375 782.148438 255.921875 C 783.085938 256.109375 784.03125 256.25 784.980469 256.34375 C 785.933594 256.441406 786.886719 256.488281 787.84375 256.488281 C 790.367188 256.476562 792.847656 256.140625 795.285156 255.476562 C 797.722656 254.8125 800.035156 253.847656 802.21875 252.578125 L 893.066406 323.308594 C 892.054688 324.839844 891.101562 326.40625 890.203125 328.007812 C 889.308594 329.609375 888.472656 331.246094 887.699219 332.910156 C 886.925781 334.574219 886.214844 336.265625 885.570312 337.984375 C 884.921875 339.703125 884.339844 341.441406 883.824219 343.203125 C 883.304688 344.964844 882.855469 346.746094 882.472656 348.539062 C 882.085938 350.335938 881.769531 352.144531 881.523438 353.960938 C 881.273438 355.78125 881.09375 357.609375 880.980469 359.441406 C 880.867188 361.273438 880.824219 363.109375 880.847656 364.945312 C 880.875 366.78125 880.96875 368.613281 881.128906 370.441406 C 881.292969 372.269531 881.519531 374.089844 881.820312 375.902344 C 882.117188 377.714844 882.484375 379.511719 882.914062 381.296875 C 883.347656 383.082031 883.847656 384.847656 884.410156 386.59375 C 884.976562 388.339844 885.605469 390.066406 886.296875 391.765625 C 886.992188 393.464844 887.75 395.136719 888.566406 396.78125 C 889.386719 398.425781 890.265625 400.035156 891.203125 401.613281 C 892.140625 403.191406 893.140625 404.730469 894.191406 406.234375 L 866.5625 433.886719 C 864.316406 433.167969 862.011719 432.792969 859.65625 432.761719 C 858.871094 432.761719 858.085938 432.800781 857.308594 432.878906 C 856.527344 432.957031 855.75 433.074219 854.980469 433.226562 C 854.210938 433.378906 853.453125 433.570312 852.699219 433.800781 C 851.949219 434.027344 851.210938 434.292969 850.488281 434.59375 C 849.761719 434.894531 849.054688 435.230469 848.363281 435.601562 C 847.671875 435.972656 847 436.375 846.347656 436.8125 C 845.695312 437.246094 845.0625 437.714844 844.457031 438.214844 C 843.851562 438.710938 843.269531 439.238281 842.714844 439.792969 C 842.160156 440.351562 841.636719 440.929688 841.136719 441.539062 C 840.640625 442.144531 840.175781 442.777344 839.738281 443.429688 C 839.304688 444.082031 838.898438 444.753906 838.53125 445.449219 C 838.160156 446.140625 837.828125 446.847656 837.527344 447.574219 C 837.226562 448.300781 836.960938 449.039062 836.734375 449.789062 C 836.507812 450.542969 836.316406 451.300781 836.164062 452.070312 C 836.011719 452.84375 835.898438 453.617188 835.820312 454.398438 C 835.742188 455.179688 835.703125 455.964844 835.707031 456.75 C 835.707031 457.535156 835.742188 458.316406 835.820312 459.097656 C 835.898438 459.878906 836.011719 460.65625 836.167969 461.425781 C 836.320312 462.195312 836.511719 462.957031 836.738281 463.707031 C 836.964844 464.460938 837.230469 465.199219 837.53125 465.921875 C 837.832031 466.648438 838.167969 467.355469 838.535156 468.050781 C 838.90625 468.742188 839.308594 469.414062 839.746094 470.066406 C 840.183594 470.71875 840.648438 471.351562 841.148438 471.957031 C 841.644531 472.5625 842.171875 473.144531 842.726562 473.699219 C 843.28125 474.253906 843.863281 474.78125 844.46875 475.28125 C 845.074219 475.777344 845.703125 476.246094 846.355469 476.679688 C 847.007812 477.117188 847.679688 477.519531 848.375 477.890625 C 849.066406 478.261719 849.773438 478.597656 850.5 478.898438 C 851.222656 479.199219 851.960938 479.460938 852.710938 479.691406 C 853.464844 479.917969 854.222656 480.109375 854.992188 480.261719 C 855.761719 480.414062 856.539062 480.53125 857.320312 480.609375 C 858.101562 480.683594 858.882812 480.722656 859.667969 480.722656 C 860.453125 480.722656 861.234375 480.683594 862.015625 480.609375 C 862.796875 480.53125 863.574219 480.417969 864.34375 480.265625 C 865.113281 480.113281 865.875 479.921875 866.625 479.695312 C 867.375 479.464844 868.113281 479.203125 868.839844 478.902344 C 869.5625 478.601562 870.273438 478.265625 870.964844 477.898438 C 871.65625 477.527344 872.328125 477.125 872.980469 476.6875 C 873.632812 476.253906 874.265625 475.785156 874.871094 475.289062 C 875.476562 474.789062 876.058594 474.261719 876.613281 473.707031 C 877.167969 473.152344 877.695312 472.574219 878.195312 471.964844 C 878.691406 471.359375 879.160156 470.730469 879.597656 470.078125 C 880.03125 469.425781 880.4375 468.753906 880.804688 468.0625 C 881.175781 467.367188 881.511719 466.660156 881.8125 465.933594 C 882.113281 465.210938 882.378906 464.472656 882.605469 463.71875 C 882.835938 462.96875 883.027344 462.207031 883.179688 461.4375 C 883.332031 460.667969 883.449219 459.894531 883.527344 459.113281 C 883.605469 458.332031 883.644531 457.546875 883.644531 456.761719 C 883.613281 454.402344 883.238281 452.101562 882.519531 449.851562 L 909.855469 422.492188 C 910.964844 423.347656 912.097656 424.171875 913.253906 424.960938 C 914.410156 425.75 915.589844 426.507812 916.789062 427.230469 C 917.988281 427.953125 919.207031 428.640625 920.445312 429.296875 C 921.683594 429.949219 922.941406 430.566406 924.214844 431.148438 C 925.488281 431.730469 926.78125 432.273438 928.085938 432.785156 C 929.390625 433.292969 930.707031 433.761719 932.039062 434.195312 C 933.371094 434.628906 934.714844 435.023438 936.070312 435.378906 C 937.425781 435.734375 938.789062 436.054688 940.160156 436.332031 C 941.535156 436.609375 942.914062 436.851562 944.296875 437.050781 C 945.683594 437.25 947.074219 437.410156 948.472656 437.53125 C 949.867188 437.652344 951.265625 437.734375 952.664062 437.773438 C 954.0625 437.816406 955.464844 437.816406 956.863281 437.777344 C 958.261719 437.738281 959.660156 437.660156 961.058594 437.539062 C 962.453125 437.421875 963.84375 437.265625 965.230469 437.066406 C 966.617188 436.867188 967.996094 436.632812 969.367188 436.355469 C 970.742188 436.078125 972.105469 435.761719 973.460938 435.40625 C 974.816406 435.054688 976.160156 434.660156 977.492188 434.230469 C 978.824219 433.800781 980.144531 433.332031 981.449219 432.824219 C 982.757812 432.316406 984.046875 431.773438 985.320312 431.195312 C 986.597656 430.617188 987.855469 430 989.09375 429.347656 C 990.332031 428.695312 991.554688 428.011719 992.753906 427.289062 C 993.957031 426.566406 995.136719 425.8125 996.292969 425.023438 C 997.449219 424.238281 998.585938 423.414062 999.695312 422.5625 C 1000.808594 421.710938 1001.894531 420.824219 1002.953125 419.910156 C 1004.015625 418.996094 1005.046875 418.050781 1006.054688 417.078125 C 1007.0625 416.101562 1008.039062 415.101562 1008.988281 414.070312 C 1009.941406 413.042969 1010.859375 411.984375 1011.75 410.902344 C 1012.640625 409.820312 1013.496094 408.714844 1014.324219 407.585938 C 1015.148438 406.453125 1015.945312 405.300781 1016.703125 404.121094 C 1017.464844 402.945312 1018.191406 401.75 1018.886719 400.53125 C 1019.578125 399.3125 1020.234375 398.078125 1020.855469 396.820312 C 1021.480469 395.566406 1022.066406 394.292969 1022.613281 393.003906 C 1023.164062 391.71875 1023.675781 390.414062 1024.152344 389.097656 C 1024.628906 387.777344 1025.066406 386.449219 1025.464844 385.105469 C 1025.867188 383.761719 1026.226562 382.410156 1026.550781 381.042969 C 1026.871094 379.679688 1027.15625 378.308594 1027.398438 376.929688 C 1027.644531 375.550781 1027.847656 374.164062 1028.015625 372.773438 C 1028.179688 371.382812 1028.304688 369.988281 1028.390625 368.589844 C 1028.476562 367.191406 1028.523438 365.789062 1028.53125 364.390625 C 1028.535156 362.988281 1028.503906 361.585938 1028.429688 360.1875 C 1028.355469 358.789062 1028.242188 357.394531 1028.089844 356 C 1027.9375 354.605469 1027.742188 353.21875 1027.511719 351.839844 C 1027.28125 350.457031 1027.007812 349.082031 1026.699219 347.714844 C 1026.386719 346.351562 1026.039062 344.992188 1025.652344 343.648438 C 1025.261719 342.300781 1024.835938 340.964844 1024.375 339.644531 C 1023.910156 338.320312 1023.410156 337.015625 1022.871094 335.71875 C 1022.332031 334.425781 1021.757812 333.148438 1021.148438 331.886719 C 1020.535156 330.628906 1019.890625 329.386719 1019.207031 328.160156 C 1018.527344 326.9375 1017.808594 325.734375 1017.058594 324.550781 C 1016.308594 323.367188 1015.527344 322.207031 1014.710938 321.066406 C 1013.894531 319.929688 1013.046875 318.816406 1012.164062 317.726562 C 1011.285156 316.636719 1010.375 315.570312 1009.433594 314.53125 C 1008.492188 313.496094 1007.523438 312.484375 1006.527344 311.5 C 1005.527344 310.519531 1004.503906 309.566406 1003.449219 308.640625 C 1002.398438 307.714844 1001.320312 306.824219 1000.21875 305.960938 C 999.113281 305.097656 997.988281 304.265625 996.835938 303.46875 C 995.683594 302.667969 994.511719 301.902344 993.316406 301.171875 C 992.125 300.4375 990.910156 299.742188 989.675781 299.078125 C 988.441406 298.417969 987.191406 297.789062 985.921875 297.199219 C 984.648438 296.609375 983.363281 296.054688 982.0625 295.535156 C 980.761719 295.015625 979.445312 294.535156 978.117188 294.09375 C 976.789062 293.652344 975.449219 293.246094 974.097656 292.878906 C 972.746094 292.515625 971.382812 292.1875 970.015625 291.898438 C 968.644531 291.609375 967.265625 291.359375 965.882812 291.148438 M 954.550781 401.84375 C 953.289062 401.878906 952.03125 401.851562 950.773438 401.757812 C 949.519531 401.667969 948.269531 401.515625 947.027344 401.296875 C 945.785156 401.082031 944.558594 400.804688 943.34375 400.464844 C 942.128906 400.125 940.933594 399.726562 939.761719 399.269531 C 938.585938 398.8125 937.4375 398.292969 936.316406 397.722656 C 935.195312 397.148438 934.101562 396.519531 933.042969 395.839844 C 931.984375 395.15625 930.960938 394.421875 929.972656 393.636719 C 928.988281 392.851562 928.042969 392.019531 927.136719 391.140625 C 926.234375 390.261719 925.378906 389.339844 924.566406 388.375 C 923.753906 387.410156 922.996094 386.40625 922.285156 385.367188 C 921.574219 384.324219 920.914062 383.25 920.3125 382.144531 C 919.707031 381.035156 919.160156 379.902344 918.671875 378.742188 C 918.179688 377.578125 917.75 376.394531 917.378906 375.191406 C 917.003906 373.988281 916.695312 372.765625 916.445312 371.53125 C 916.195312 370.292969 916.003906 369.050781 915.878906 367.792969 C 915.753906 366.539062 915.691406 365.28125 915.691406 364.019531 C 915.691406 362.761719 915.753906 361.503906 915.878906 360.246094 C 916.003906 358.992188 916.195312 357.746094 916.445312 356.511719 C 916.695312 355.277344 917.003906 354.054688 917.378906 352.851562 C 917.75 351.648438 918.179688 350.464844 918.671875 349.300781 C 919.160156 348.140625 919.707031 347.007812 920.3125 345.898438 C 920.914062 344.792969 921.574219 343.71875 922.285156 342.675781 C 922.996094 341.636719 923.753906 340.632812 924.566406 339.667969 C 925.378906 338.703125 926.234375 337.78125 927.136719 336.902344 C 928.042969 336.023438 928.988281 335.191406 929.972656 334.40625 C 930.960938 333.621094 931.984375 332.886719 933.042969 332.203125 C 934.101562 331.523438 935.195312 330.894531 936.316406 330.320312 C 937.4375 329.746094 938.585938 329.230469 939.761719 328.773438 C 940.933594 328.316406 942.128906 327.917969 943.34375 327.578125 C 944.558594 327.238281 945.785156 326.960938 947.027344 326.746094 C 948.269531 326.527344 949.519531 326.375 950.773438 326.285156 C 952.03125 326.191406 953.289062 326.164062 954.550781 326.199219 C 955.761719 326.242188 956.964844 326.339844 958.164062 326.5 C 959.367188 326.65625 960.554688 326.875 961.734375 327.144531 C 962.914062 327.417969 964.078125 327.746094 965.226562 328.128906 C 966.375 328.515625 967.5 328.953125 968.605469 329.445312 C 969.710938 329.9375 970.792969 330.484375 971.847656 331.078125 C 972.898438 331.675781 973.921875 332.320312 974.914062 333.015625 C 975.90625 333.710938 976.863281 334.449219 977.78125 335.238281 C 978.703125 336.023438 979.585938 336.851562 980.425781 337.722656 C 981.265625 338.59375 982.0625 339.503906 982.816406 340.453125 C 983.570312 341.398438 984.277344 342.378906 984.9375 343.394531 C 985.597656 344.410156 986.207031 345.457031 986.765625 346.53125 C 987.324219 347.605469 987.832031 348.703125 988.285156 349.824219 C 988.738281 350.949219 989.140625 352.089844 989.484375 353.25 C 989.828125 354.414062 990.117188 355.589844 990.347656 356.777344 C 990.578125 357.964844 990.753906 359.164062 990.871094 360.367188 C 990.984375 361.574219 991.042969 362.78125 991.046875 363.992188 C 991.046875 365.203125 990.988281 366.414062 990.871094 367.617188 C 990.757812 368.824219 990.585938 370.019531 990.355469 371.210938 C 990.125 372.398438 989.835938 373.574219 989.496094 374.734375 C 989.152344 375.898438 988.753906 377.039062 988.300781 378.164062 C 987.847656 379.285156 987.34375 380.386719 986.785156 381.460938 C 986.226562 382.535156 985.617188 383.582031 984.957031 384.597656 C 984.300781 385.613281 983.59375 386.59375 982.84375 387.542969 C 982.089844 388.492188 981.292969 389.402344 980.453125 390.273438 C 979.613281 391.144531 978.730469 391.976562 977.8125 392.761719 C 976.890625 393.550781 975.9375 394.292969 974.945312 394.988281 C 973.953125 395.683594 972.933594 396.328125 971.878906 396.925781 C 970.828125 397.523438 969.746094 398.070312 968.640625 398.5625 C 967.535156 399.058594 966.410156 399.496094 965.261719 399.882812 C 964.113281 400.265625 962.949219 400.597656 961.773438 400.871094 C 960.59375 401.144531 959.402344 401.359375 958.203125 401.519531 C 957.003906 401.679688 955.796875 401.78125 954.589844 401.824219 " fill-opacity="1" fill-rule="nonzero"/></g></svg>