<svg xmlns="http://www.w3.org/2000/svg" xmlns:xlink="http://www.w3.org/1999/xlink" width="1640" zoomAndPan="magnify" viewBox="0 0 1230 693.000001" height="924" preserveAspectRatio="xMidYMid meet" version="1.0"><defs><clipPath id="02feec6374"><path d="M 133.46875 165.144531 L 283 165.144531 L 283 252 L 133.46875 252 Z M 133.46875 165.144531 " clip-rule="nonzero"/></clipPath><clipPath id="0d78f14be4"><path d="M 133.46875 287 L 283 287 L 283 455 L 133.46875 455 Z M 133.46875 287 " clip-rule="nonzero"/></clipPath><clipPath id="8485c91d46"><path d="M 919 287 L 1096 287 L 1096 526.871094 L 919 526.871094 Z M 919 287 " clip-rule="nonzero"/></clipPath></defs><g clip-path="url(#02feec6374)"><path fill="#a435f0" d="M 282.953125 251.453125 L 208.207031 208.296875 L 133.476562 251.453125 L 133.476562 208.296875 L 208.222656 165.144531 L 282.964844 208.296875 L 282.964844 251.453125 Z M 282.953125 251.453125 " fill-opacity="1" fill-rule="nonzero"/></g><g clip-path="url(#0d78f14be4)"><path fill="#ffffff" d="M 133.476562 287.683594 L 172.625 287.683594 L 172.625 382.808594 C 172.625 407.394531 190.976562 419.367188 208.222656 419.367188 C 225.59375 419.367188 243.816406 407.066406 243.816406 382.480469 L 243.816406 287.683594 L 282.964844 287.683594 L 282.964844 385.074219 C 282.964844 407.71875 275.851562 425.191406 261.613281 437.164062 C 247.371094 449.136719 229.574219 454.960938 207.894531 454.960938 C 186.214844 454.960938 168.417969 449.136719 154.503906 437.164062 C 140.589844 425.191406 133.476562 408.371094 133.476562 386.039062 Z M 133.476562 287.683594 " fill-opacity="1" fill-rule="nonzero"/></g><path fill="#ffffff" d="M 621.445312 405.910156 C 609.59375 416.460938 596.089844 421.632812 580.691406 421.632812 C 552.621094 421.632812 533.773438 405.632812 531.652344 380.855469 L 658.160156 380.855469 C 658.160156 380.855469 658.992188 372.847656 658.992188 365.335938 C 658.992188 342.039062 651.554688 322.628906 636.347656 306.773438 C 621.46875 290.917969 602.054688 283.152344 578.4375 283.152344 C 553.523438 283.152344 533.136719 290.917969 516.953125 306.773438 C 501.097656 322.628906 493.007812 343.332031 493.007812 369.21875 L 493.007812 370.507812 C 493.007812 396.070312 501.097656 416.449219 516.953125 431.664062 C 532.808594 446.871094 553.839844 454.632812 579.398438 454.632812 C 609.125 454.632812 632.78125 442.914062 650.527344 422.695312 Z M 547.039062 326.511719 C 555.765625 319.710938 566.449219 316.152344 578.421875 316.152344 C 589.746094 316.152344 599.125 319.710938 607.214844 326.835938 C 614.949219 333.324219 619.117188 341.292969 619.476562 350.457031 L 532.640625 350.457031 C 533.894531 340.992188 538.683594 333.011719 547.039062 326.511719 Z M 547.039062 326.511719 " fill-opacity="1" fill-rule="nonzero"/><g clip-path="url(#8485c91d46)"><path fill="#ffffff" d="M 1015.570312 476.617188 C 999.667969 514.117188 983.050781 526.871094 957.574219 526.871094 C 953.207031 526.871094 939.921875 526.871094 939.921875 526.871094 L 939.921875 492.171875 C 939.921875 492.171875 945.429688 492.171875 954.199219 492.171875 C 962.964844 492.171875 971.113281 488.878906 978.878906 470.949219 C 986.644531 453.019531 986.644531 453.019531 986.644531 453.019531 L 919.667969 287.683594 L 959.464844 287.683594 L 1007.03125 406.753906 L 1055.890625 287.683594 L 1095.691406 287.683594 C 1095.683594 287.683594 1031.933594 438.019531 1015.570312 476.617188 Z M 1015.570312 476.617188 " fill-opacity="1" fill-rule="nonzero"/></g><path fill="#ffffff" d="M 435.386719 225.238281 L 435.386719 302.457031 C 422.554688 290.953125 402.601562 284.117188 383.296875 284.117188 C 360.328125 284.117188 340.914062 292.207031 325.058594 308.703125 C 309.527344 324.882812 301.765625 344.933594 301.765625 369.207031 C 301.765625 393.480469 309.527344 413.53125 325.058594 430.039062 C 340.914062 446.21875 360.328125 454.308594 383.296875 454.308594 C 409.800781 454.308594 426.535156 443.902344 435.386719 435.742188 L 435.386719 450.753906 L 474.210938 450.753906 L 474.210938 225.238281 Z M 423.738281 404.8125 C 414.355469 414.195312 402.382812 419.054688 388.46875 419.054688 C 374.554688 419.054688 363.234375 414.195312 353.851562 404.8125 C 344.796875 395.433594 340.261719 383.460938 340.261719 369.21875 C 340.261719 354.980469 344.796875 343.007812 353.851562 333.625 C 363.234375 324.246094 374.554688 319.386719 388.46875 319.386719 C 402.382812 319.386719 414.355469 324.246094 423.738281 333.625 C 433.445312 343.007812 438.304688 354.980469 438.304688 369.21875 C 438.304688 383.460938 433.445312 395.433594 423.738281 404.8125 Z M 423.738281 404.8125 " fill-opacity="1" fill-rule="nonzero"/><path fill="#ffffff" d="M 859.304688 284.453125 C 829.8125 284.453125 814.476562 296.691406 803.972656 308.472656 C 799.777344 300.464844 787.949219 284.453125 760.296875 284.453125 C 736.945312 284.453125 723.164062 296.257812 716.304688 304.675781 L 716.304688 287.699219 L 677.800781 287.699219 L 677.800781 450.765625 L 716.304688 450.765625 L 716.304688 356.933594 C 716.304688 334.925781 729.890625 319.070312 748.011719 319.070312 C 766.460938 319.070312 777.132812 332.984375 777.132812 355.304688 L 777.132812 450.753906 L 815.632812 450.753906 L 815.632812 356.921875 C 815.632812 334.589844 828.894531 319.058594 847.980469 319.058594 C 866.429688 319.058594 877.101562 332.972656 877.101562 355.292969 L 877.101562 450.742188 L 915.925781 450.742188 L 915.925781 349.792969 C 915.925781 307.28125 893.078125 284.453125 859.304688 284.453125 Z M 859.304688 284.453125 " fill-opacity="1" fill-rule="nonzero"/></svg>